STARTFONT 2.1
FONT PressStart2P
SIZE 8 72 72
FONTBOUNDINGBOX 8 8 0 0
COMMENT "Generated by fontforge, http://fontforge.sourceforge.net"
STARTPROPERTIES 3
FONT_ASCENT 8
FONT_DESCENT 0
DEFAULT_CHAR 32
ENDPROPERTIES
CHARS 556
STARTCHAR space
ENCODING 32
SWIDTH 1000 0
DWIDTH 8 0
BBX 1 1 7 0
BITMAP
00
ENDCHAR
STARTCHAR exclam
ENCODING 33
SWIDTH 1000 0
DWIDTH 8 0
BBX 3 7 2 1
BITMAP
E0
E0
E0
C0
C0
00
C0
ENDCHAR
STARTCHAR quotedbl
ENCODING 34
SWIDTH 1000 0
DWIDTH 8 0
BBX 5 3 1 5
BITMAP
D8
D8
D8
ENDCHAR
STARTCHAR numbersign
ENCODING 35
SWIDTH 1000 0
DWIDTH 8 0
BBX 7 7 0 1
BITMAP
6C
FE
6C
6C
6C
FE
6C
ENDCHAR
STARTCHAR dollar
ENCODING 36
SWIDTH 1000 0
DWIDTH 8 0
BBX 7 7 0 1
BITMAP
10
7C
D0
7C
16
FC
10
ENDCHAR
STARTCHAR percent
ENCODING 37
SWIDTH 1000 0
DWIDTH 8 0
BBX 7 7 0 1
BITMAP
62
A4
C8
10
26
4A
8C
ENDCHAR
STARTCHAR ampersand
ENCODING 38
SWIDTH 1000 0
DWIDTH 8 0
BBX 7 7 0 1
BITMAP
70
D8
D8
70
DA
CC
7E
ENDCHAR
STARTCHAR quotesingle
ENCODING 39
SWIDTH 1000 0
DWIDTH 8 0
BBX 2 3 2 5
BITMAP
C0
C0
C0
ENDCHAR
STARTCHAR parenleft
ENCODING 40
SWIDTH 1000 0
DWIDTH 8 0
BBX 4 7 2 1
BITMAP
30
60
C0
C0
C0
60
30
ENDCHAR
STARTCHAR parenright
ENCODING 41
SWIDTH 1000 0
DWIDTH 8 0
BBX 4 7 1 1
BITMAP
C0
60
30
30
30
60
C0
ENDCHAR
STARTCHAR asterisk
ENCODING 42
SWIDTH 1000 0
DWIDTH 8 0
BBX 7 5 0 2
BITMAP
6C
38
FE
38
6C
ENDCHAR
STARTCHAR plus
ENCODING 43
SWIDTH 1000 0
DWIDTH 8 0
BBX 6 5 1 2
BITMAP
30
30
FC
30
30
ENDCHAR
STARTCHAR comma
ENCODING 44
SWIDTH 1000 0
DWIDTH 8 0
BBX 3 3 1 0
BITMAP
60
60
C0
ENDCHAR
STARTCHAR hyphen
ENCODING 45
SWIDTH 1000 0
DWIDTH 8 0
BBX 6 1 1 4
BITMAP
FC
ENDCHAR
STARTCHAR period
ENCODING 46
SWIDTH 1000 0
DWIDTH 8 0
BBX 2 2 2 1
BITMAP
C0
C0
ENDCHAR
STARTCHAR slash
ENCODING 47
SWIDTH 1000 0
DWIDTH 8 0
BBX 7 7 0 1
BITMAP
02
04
08
10
20
40
80
ENDCHAR
STARTCHAR zero
ENCODING 48
SWIDTH 1000 0
DWIDTH 8 0
BBX 7 7 0 1
BITMAP
38
4C
C6
C6
C6
64
38
ENDCHAR
STARTCHAR one
ENCODING 49
SWIDTH 1000 0
DWIDTH 8 0
BBX 6 7 1 1
BITMAP
30
70
30
30
30
30
FC
ENDCHAR
STARTCHAR two
ENCODING 50
SWIDTH 1000 0
DWIDTH 8 0
BBX 7 7 0 1
BITMAP
7C
C6
0E
3C
78
E0
FE
ENDCHAR
STARTCHAR three
ENCODING 51
SWIDTH 1000 0
DWIDTH 8 0
BBX 7 7 0 1
BITMAP
7E
0C
18
3C
06
C6
7C
ENDCHAR
STARTCHAR four
ENCODING 52
SWIDTH 1000 0
DWIDTH 8 0
BBX 7 7 0 1
BITMAP
1C
3C
6C
CC
FE
0C
0C
ENDCHAR
STARTCHAR five
ENCODING 53
SWIDTH 1000 0
DWIDTH 8 0
BBX 7 7 0 1
BITMAP
FC
C0
FC
06
06
C6
7C
ENDCHAR
STARTCHAR six
ENCODING 54
SWIDTH 1000 0
DWIDTH 8 0
BBX 7 7 0 1
BITMAP
3C
60
C0
FC
C6
C6
7C
ENDCHAR
STARTCHAR seven
ENCODING 55
SWIDTH 1000 0
DWIDTH 8 0
BBX 7 7 0 1
BITMAP
FE
C6
0C
18
30
30
30
ENDCHAR
STARTCHAR eight
ENCODING 56
SWIDTH 1000 0
DWIDTH 8 0
BBX 7 7 0 1
BITMAP
78
C4
E4
78
9E
86
7C
ENDCHAR
STARTCHAR nine
ENCODING 57
SWIDTH 1000 0
DWIDTH 8 0
BBX 7 7 0 1
BITMAP
7C
C6
C6
7E
06
0C
78
ENDCHAR
STARTCHAR colon
ENCODING 58
SWIDTH 1000 0
DWIDTH 8 0
BBX 2 5 2 2
BITMAP
C0
C0
00
C0
C0
ENDCHAR
STARTCHAR semicolon
ENCODING 59
SWIDTH 1000 0
DWIDTH 8 0
BBX 3 6 1 1
BITMAP
60
60
00
60
60
C0
ENDCHAR
STARTCHAR less
ENCODING 60
SWIDTH 1000 0
DWIDTH 8 0
BBX 5 7 1 1
BITMAP
18
30
60
C0
60
30
18
ENDCHAR
STARTCHAR equal
ENCODING 61
SWIDTH 1000 0
DWIDTH 8 0
BBX 7 3 0 3
BITMAP
FE
00
FE
ENDCHAR
STARTCHAR greater
ENCODING 62
SWIDTH 1000 0
DWIDTH 8 0
BBX 5 7 1 1
BITMAP
C0
60
30
18
30
60
C0
ENDCHAR
STARTCHAR question
ENCODING 63
SWIDTH 1000 0
DWIDTH 8 0
BBX 7 7 0 1
BITMAP
7C
FE
C6
0C
38
00
38
ENDCHAR
STARTCHAR at
ENCODING 64
SWIDTH 1000 0
DWIDTH 8 0
BBX 7 7 0 1
BITMAP
7C
82
BA
AA
BE
80
7C
ENDCHAR
STARTCHAR A
ENCODING 65
SWIDTH 1000 0
DWIDTH 8 0
BBX 7 7 0 1
BITMAP
38
6C
C6
C6
FE
C6
C6
ENDCHAR
STARTCHAR B
ENCODING 66
SWIDTH 1000 0
DWIDTH 8 0
BBX 7 7 0 1
BITMAP
FC
C6
C6
FC
C6
C6
FC
ENDCHAR
STARTCHAR C
ENCODING 67
SWIDTH 1000 0
DWIDTH 8 0
BBX 7 7 0 1
BITMAP
3C
66
C0
C0
C0
66
3C
ENDCHAR
STARTCHAR D
ENCODING 68
SWIDTH 1000 0
DWIDTH 8 0
BBX 7 7 0 1
BITMAP
F8
CC
C6
C6
C6
CC
F8
ENDCHAR
STARTCHAR E
ENCODING 69
SWIDTH 1000 0
DWIDTH 8 0
BBX 7 7 0 1
BITMAP
FE
C0
C0
FC
C0
C0
FE
ENDCHAR
STARTCHAR F
ENCODING 70
SWIDTH 1000 0
DWIDTH 8 0
BBX 7 7 0 1
BITMAP
FE
C0
C0
FC
C0
C0
C0
ENDCHAR
STARTCHAR G
ENCODING 71
SWIDTH 1000 0
DWIDTH 8 0
BBX 7 7 0 1
BITMAP
3E
60
C0
CE
C6
66
3E
ENDCHAR
STARTCHAR H
ENCODING 72
SWIDTH 1000 0
DWIDTH 8 0
BBX 7 7 0 1
BITMAP
C6
C6
C6
FE
C6
C6
C6
ENDCHAR
STARTCHAR I
ENCODING 73
SWIDTH 1000 0
DWIDTH 8 0
BBX 6 7 1 1
BITMAP
FC
30
30
30
30
30
FC
ENDCHAR
STARTCHAR J
ENCODING 74
SWIDTH 1000 0
DWIDTH 8 0
BBX 7 7 0 1
BITMAP
06
06
06
06
06
C6
7C
ENDCHAR
STARTCHAR K
ENCODING 75
SWIDTH 1000 0
DWIDTH 8 0
BBX 7 7 0 1
BITMAP
C6
CC
D8
F0
F8
DC
CE
ENDCHAR
STARTCHAR L
ENCODING 76
SWIDTH 1000 0
DWIDTH 8 0
BBX 6 7 1 1
BITMAP
C0
C0
C0
C0
C0
C0
FC
ENDCHAR
STARTCHAR M
ENCODING 77
SWIDTH 1000 0
DWIDTH 8 0
BBX 7 7 0 1
BITMAP
C6
EE
FE
FE
D6
C6
C6
ENDCHAR
STARTCHAR N
ENCODING 78
SWIDTH 1000 0
DWIDTH 8 0
BBX 7 7 0 1
BITMAP
C6
E6
F6
FE
DE
CE
C6
ENDCHAR
STARTCHAR O
ENCODING 79
SWIDTH 1000 0
DWIDTH 8 0
BBX 7 7 0 1
BITMAP
7C
C6
C6
C6
C6
C6
7C
ENDCHAR
STARTCHAR P
ENCODING 80
SWIDTH 1000 0
DWIDTH 8 0
BBX 7 7 0 1
BITMAP
FC
C6
C6
C6
FC
C0
C0
ENDCHAR
STARTCHAR Q
ENCODING 81
SWIDTH 1000 0
DWIDTH 8 0
BBX 7 7 0 1
BITMAP
7C
C6
C6
C6
DE
CC
7A
ENDCHAR
STARTCHAR R
ENCODING 82
SWIDTH 1000 0
DWIDTH 8 0
BBX 7 7 0 1
BITMAP
FC
C6
C6
CE
F8
DC
CE
ENDCHAR
STARTCHAR S
ENCODING 83
SWIDTH 1000 0
DWIDTH 8 0
BBX 7 7 0 1
BITMAP
78
CC
C0
7C
06
C6
7C
ENDCHAR
STARTCHAR T
ENCODING 84
SWIDTH 1000 0
DWIDTH 8 0
BBX 6 7 1 1
BITMAP
FC
30
30
30
30
30
30
ENDCHAR
STARTCHAR U
ENCODING 85
SWIDTH 1000 0
DWIDTH 8 0
BBX 7 7 0 1
BITMAP
C6
C6
C6
C6
C6
C6
7C
ENDCHAR
STARTCHAR V
ENCODING 86
SWIDTH 1000 0
DWIDTH 8 0
BBX 7 7 0 1
BITMAP
C6
C6
C6
EE
7C
38
10
ENDCHAR
STARTCHAR W
ENCODING 87
SWIDTH 1000 0
DWIDTH 8 0
BBX 7 7 0 1
BITMAP
C6
C6
D6
FE
FE
EE
C6
ENDCHAR
STARTCHAR X
ENCODING 88
SWIDTH 1000 0
DWIDTH 8 0
BBX 7 7 0 1
BITMAP
C6
EE
7C
38
7C
EE
C6
ENDCHAR
STARTCHAR Y
ENCODING 89
SWIDTH 1000 0
DWIDTH 8 0
BBX 6 7 1 1
BITMAP
CC
CC
CC
78
30
30
30
ENDCHAR
STARTCHAR Z
ENCODING 90
SWIDTH 1000 0
DWIDTH 8 0
BBX 7 7 0 1
BITMAP
FE
0E
1C
38
70
E0
FE
ENDCHAR
STARTCHAR bracketleft
ENCODING 91
SWIDTH 1000 0
DWIDTH 8 0
BBX 4 7 2 1
BITMAP
F0
C0
C0
C0
C0
C0
F0
ENDCHAR
STARTCHAR backslash
ENCODING 92
SWIDTH 1000 0
DWIDTH 8 0
BBX 7 7 0 1
BITMAP
80
40
20
10
08
04
02
ENDCHAR
STARTCHAR bracketright
ENCODING 93
SWIDTH 1000 0
DWIDTH 8 0
BBX 4 7 1 1
BITMAP
F0
30
30
30
30
30
F0
ENDCHAR
STARTCHAR asciicircum
ENCODING 94
SWIDTH 1000 0
DWIDTH 8 0
BBX 5 2 1 6
BITMAP
70
D8
ENDCHAR
STARTCHAR underscore
ENCODING 95
SWIDTH 1000 0
DWIDTH 8 0
BBX 7 1 0 0
BITMAP
FE
ENDCHAR
STARTCHAR grave
ENCODING 96
SWIDTH 1000 0
DWIDTH 8 0
BBX 2 2 3 6
BITMAP
80
40
ENDCHAR
STARTCHAR a
ENCODING 97
SWIDTH 1000 0
DWIDTH 8 0
BBX 7 5 0 1
BITMAP
7C
06
7E
C6
7E
ENDCHAR
STARTCHAR b
ENCODING 98
SWIDTH 1000 0
DWIDTH 8 0
BBX 7 7 0 1
BITMAP
C0
C0
FC
C6
C6
C6
7C
ENDCHAR
STARTCHAR c
ENCODING 99
SWIDTH 1000 0
DWIDTH 8 0
BBX 7 5 0 1
BITMAP
7E
C0
C0
C0
7E
ENDCHAR
STARTCHAR d
ENCODING 100
SWIDTH 1000 0
DWIDTH 8 0
BBX 7 7 0 1
BITMAP
06
06
7E
C6
C6
C6
7E
ENDCHAR
STARTCHAR e
ENCODING 101
SWIDTH 1000 0
DWIDTH 8 0
BBX 7 5 0 1
BITMAP
7C
C6
FE
C0
7C
ENDCHAR
STARTCHAR f
ENCODING 102
SWIDTH 1000 0
DWIDTH 8 0
BBX 6 7 1 1
BITMAP
1C
30
FC
30
30
30
30
ENDCHAR
STARTCHAR g
ENCODING 103
SWIDTH 1000 0
DWIDTH 8 0
BBX 7 6 0 0
BITMAP
7E
C6
C6
7E
06
7C
ENDCHAR
STARTCHAR h
ENCODING 104
SWIDTH 1000 0
DWIDTH 8 0
BBX 7 7 0 1
BITMAP
C0
C0
FC
C6
C6
C6
C6
ENDCHAR
STARTCHAR i
ENCODING 105
SWIDTH 1000 0
DWIDTH 8 0
BBX 6 7 1 1
BITMAP
30
00
70
30
30
30
FC
ENDCHAR
STARTCHAR j
ENCODING 106
SWIDTH 1000 0
DWIDTH 8 0
BBX 5 8 1 0
BITMAP
18
00
38
18
18
18
18
F0
ENDCHAR
STARTCHAR k
ENCODING 107
SWIDTH 1000 0
DWIDTH 8 0
BBX 7 7 0 1
BITMAP
C0
C0
CE
FC
F8
DC
CE
ENDCHAR
STARTCHAR l
ENCODING 108
SWIDTH 1000 0
DWIDTH 8 0
BBX 6 7 1 1
BITMAP
70
30
30
30
30
30
FC
ENDCHAR
STARTCHAR m
ENCODING 109
SWIDTH 1000 0
DWIDTH 8 0
BBX 7 5 0 1
BITMAP
FC
B6
B6
B6
B6
ENDCHAR
STARTCHAR n
ENCODING 110
SWIDTH 1000 0
DWIDTH 8 0
BBX 7 5 0 1
BITMAP
FC
C6
C6
C6
C6
ENDCHAR
STARTCHAR o
ENCODING 111
SWIDTH 1000 0
DWIDTH 8 0
BBX 7 5 0 1
BITMAP
7C
C6
C6
C6
7C
ENDCHAR
STARTCHAR p
ENCODING 112
SWIDTH 1000 0
DWIDTH 8 0
BBX 7 6 0 0
BITMAP
FC
C6
C6
FC
C0
C0
ENDCHAR
STARTCHAR q
ENCODING 113
SWIDTH 1000 0
DWIDTH 8 0
BBX 7 6 0 0
BITMAP
7E
C6
C6
7E
06
06
ENDCHAR
STARTCHAR r
ENCODING 114
SWIDTH 1000 0
DWIDTH 8 0
BBX 6 5 1 1
BITMAP
DC
E0
C0
C0
C0
ENDCHAR
STARTCHAR s
ENCODING 115
SWIDTH 1000 0
DWIDTH 8 0
BBX 7 5 0 1
BITMAP
7C
C0
7C
06
FC
ENDCHAR
STARTCHAR t
ENCODING 116
SWIDTH 1000 0
DWIDTH 8 0
BBX 6 7 1 1
BITMAP
30
30
FC
30
30
30
30
ENDCHAR
STARTCHAR u
ENCODING 117
SWIDTH 1000 0
DWIDTH 8 0
BBX 7 5 0 1
BITMAP
C6
C6
C6
C6
7E
ENDCHAR
STARTCHAR v
ENCODING 118
SWIDTH 1000 0
DWIDTH 8 0
BBX 6 5 1 1
BITMAP
CC
CC
CC
78
30
ENDCHAR
STARTCHAR w
ENCODING 119
SWIDTH 1000 0
DWIDTH 8 0
BBX 7 5 0 1
BITMAP
B6
B6
B6
B6
7E
ENDCHAR
STARTCHAR x
ENCODING 120
SWIDTH 1000 0
DWIDTH 8 0
BBX 7 5 0 1
BITMAP
C6
FE
38
FE
C6
ENDCHAR
STARTCHAR y
ENCODING 121
SWIDTH 1000 0
DWIDTH 8 0
BBX 7 6 0 0
BITMAP
C6
C6
C6
7E
06
7C
ENDCHAR
STARTCHAR z
ENCODING 122
SWIDTH 1000 0
DWIDTH 8 0
BBX 7 5 0 1
BITMAP
FE
1C
38
70
FE
ENDCHAR
STARTCHAR braceleft
ENCODING 123
SWIDTH 1000 0
DWIDTH 8 0
BBX 4 7 2 1
BITMAP
30
60
60
C0
60
60
30
ENDCHAR
STARTCHAR bar
ENCODING 124
SWIDTH 1000 0
DWIDTH 8 0
BBX 2 7 3 1
BITMAP
C0
C0
C0
C0
C0
C0
C0
ENDCHAR
STARTCHAR braceright
ENCODING 125
SWIDTH 1000 0
DWIDTH 8 0
BBX 4 7 1 1
BITMAP
C0
60
60
30
60
60
C0
ENDCHAR
STARTCHAR asciitilde
ENCODING 126
SWIDTH 1000 0
DWIDTH 8 0
BBX 7 3 0 3
BITMAP
70
BA
1C
ENDCHAR
STARTCHAR uni007F
ENCODING 127
SWIDTH 1000 0
DWIDTH 8 0
BBX 5 2 1 1
BITMAP
D8
D8
ENDCHAR
STARTCHAR uni00A0
ENCODING 160
SWIDTH 1000 0
DWIDTH 8 0
BBX 1 1 7 0
BITMAP
00
ENDCHAR
STARTCHAR exclamdown
ENCODING 161
SWIDTH 1000 0
DWIDTH 8 0
BBX 3 7 2 1
BITMAP
60
00
60
60
E0
E0
E0
ENDCHAR
STARTCHAR cent
ENCODING 162
SWIDTH 1000 0
DWIDTH 8 0
BBX 7 7 0 1
BITMAP
10
7C
D6
D0
D6
7C
10
ENDCHAR
STARTCHAR sterling
ENCODING 163
SWIDTH 1000 0
DWIDTH 8 0
BBX 7 7 0 1
BITMAP
3C
66
60
FC
60
60
FE
ENDCHAR
STARTCHAR currency
ENCODING 164
SWIDTH 1000 0
DWIDTH 8 0
BBX 6 5 1 2
BITMAP
B4
48
48
48
B4
ENDCHAR
STARTCHAR yen
ENCODING 165
SWIDTH 1000 0
DWIDTH 8 0
BBX 6 7 1 1
BITMAP
CC
CC
78
FC
30
FC
30
ENDCHAR
STARTCHAR brokenbar
ENCODING 166
SWIDTH 1000 0
DWIDTH 8 0
BBX 2 7 3 1
BITMAP
C0
C0
C0
00
C0
C0
C0
ENDCHAR
STARTCHAR section
ENCODING 167
SWIDTH 1000 0
DWIDTH 8 0
BBX 6 7 1 1
BITMAP
78
CC
F0
48
3C
CC
78
ENDCHAR
STARTCHAR dieresis
ENCODING 168
SWIDTH 1000 0
DWIDTH 8 0
BBX 5 1 1 7
BITMAP
D8
ENDCHAR
STARTCHAR copyright
ENCODING 169
SWIDTH 1000 0
DWIDTH 8 0
BBX 8 8 0 0
BITMAP
3C
42
99
A1
A1
99
42
3C
ENDCHAR
STARTCHAR ordfeminine
ENCODING 170
SWIDTH 1000 0
DWIDTH 8 0
BBX 5 4 1 4
BITMAP
F0
78
D8
78
ENDCHAR
STARTCHAR guillemotleft
ENCODING 171
SWIDTH 1000 0
DWIDTH 8 0
BBX 7 5 0 2
BITMAP
36
6C
D8
6C
36
ENDCHAR
STARTCHAR logicalnot
ENCODING 172
SWIDTH 1000 0
DWIDTH 8 0
BBX 6 3 1 3
BITMAP
FC
0C
0C
ENDCHAR
STARTCHAR uni00AD
ENCODING 173
SWIDTH 1000 0
DWIDTH 8 0
BBX 6 1 1 4
BITMAP
FC
ENDCHAR
STARTCHAR registered
ENCODING 174
SWIDTH 1000 0
DWIDTH 8 0
BBX 8 8 0 0
BITMAP
3C
42
B9
A5
B9
A5
42
3C
ENDCHAR
STARTCHAR macron
ENCODING 175
SWIDTH 1000 0
DWIDTH 8 0
BBX 5 1 1 7
BITMAP
F8
ENDCHAR
STARTCHAR degree
ENCODING 176
SWIDTH 1000 0
DWIDTH 8 0
BBX 3 3 2 5
BITMAP
40
A0
40
ENDCHAR
STARTCHAR plusminus
ENCODING 177
SWIDTH 1000 0
DWIDTH 8 0
BBX 6 7 1 1
BITMAP
30
30
FC
30
30
00
FC
ENDCHAR
STARTCHAR uni00B2
ENCODING 178
SWIDTH 1000 0
DWIDTH 8 0
BBX 4 4 2 4
BITMAP
E0
30
60
F0
ENDCHAR
STARTCHAR uni00B3
ENCODING 179
SWIDTH 1000 0
DWIDTH 8 0
BBX 4 4 2 4
BITMAP
F0
60
30
E0
ENDCHAR
STARTCHAR acute
ENCODING 180
SWIDTH 1000 0
DWIDTH 8 0
BBX 2 2 3 6
BITMAP
40
80
ENDCHAR
STARTCHAR uni00B5
ENCODING 181
SWIDTH 1000 0
DWIDTH 8 0
BBX 7 6 0 0
BITMAP
CC
CC
CC
CC
F6
C0
ENDCHAR
STARTCHAR paragraph
ENCODING 182
SWIDTH 1000 0
DWIDTH 8 0
BBX 6 7 1 1
BITMAP
7C
D4
94
D4
7C
14
14
ENDCHAR
STARTCHAR periodcentered
ENCODING 183
SWIDTH 1000 0
DWIDTH 8 0
BBX 2 2 2 3
BITMAP
C0
C0
ENDCHAR
STARTCHAR cedilla
ENCODING 184
SWIDTH 1000 0
DWIDTH 8 0
BBX 3 2 2 0
BITMAP
20
C0
ENDCHAR
STARTCHAR uni00B9
ENCODING 185
SWIDTH 1000 0
DWIDTH 8 0
BBX 4 4 2 4
BITMAP
60
E0
60
F0
ENDCHAR
STARTCHAR ordmasculine
ENCODING 186
SWIDTH 1000 0
DWIDTH 8 0
BBX 5 4 1 4
BITMAP
70
D8
D8
70
ENDCHAR
STARTCHAR guillemotright
ENCODING 187
SWIDTH 1000 0
DWIDTH 8 0
BBX 7 5 0 2
BITMAP
D8
6C
36
6C
D8
ENDCHAR
STARTCHAR onequarter
ENCODING 188
SWIDTH 1000 0
DWIDTH 8 0
BBX 7 7 0 1
BITMAP
42
C4
48
52
26
4E
82
ENDCHAR
STARTCHAR onehalf
ENCODING 189
SWIDTH 1000 0
DWIDTH 8 0
BBX 7 7 0 1
BITMAP
42
C4
48
56
22
44
8E
ENDCHAR
STARTCHAR threequarters
ENCODING 190
SWIDTH 1000 0
DWIDTH 8 0
BBX 7 7 0 1
BITMAP
E2
44
28
D2
26
4E
82
ENDCHAR
STARTCHAR questiondown
ENCODING 191
SWIDTH 1000 0
DWIDTH 8 0
BBX 7 7 0 1
BITMAP
38
00
38
60
C6
FE
7C
ENDCHAR
STARTCHAR Agrave
ENCODING 192
SWIDTH 1000 0
DWIDTH 8 0
BBX 7 7 0 1
BITMAP
20
10
38
6C
C6
FE
C6
ENDCHAR
STARTCHAR Aacute
ENCODING 193
SWIDTH 1000 0
DWIDTH 8 0
BBX 7 7 0 1
BITMAP
08
10
38
6C
C6
FE
C6
ENDCHAR
STARTCHAR Acircumflex
ENCODING 194
SWIDTH 1000 0
DWIDTH 8 0
BBX 7 7 0 1
BITMAP
38
6C
38
6C
C6
FE
C6
ENDCHAR
STARTCHAR Atilde
ENCODING 195
SWIDTH 1000 0
DWIDTH 8 0
BBX 7 7 0 1
BITMAP
34
58
38
6C
C6
FE
C6
ENDCHAR
STARTCHAR Adieresis
ENCODING 196
SWIDTH 1000 0
DWIDTH 8 0
BBX 7 7 0 1
BITMAP
6C
00
38
6C
C6
FE
C6
ENDCHAR
STARTCHAR Aring
ENCODING 197
SWIDTH 1000 0
DWIDTH 8 0
BBX 7 7 0 1
BITMAP
10
28
38
6C
C6
FE
C6
ENDCHAR
STARTCHAR AE
ENCODING 198
SWIDTH 1000 0
DWIDTH 8 0
BBX 7 7 0 1
BITMAP
3E
78
D8
DE
F8
D8
DE
ENDCHAR
STARTCHAR Ccedilla
ENCODING 199
SWIDTH 1000 0
DWIDTH 8 0
BBX 7 8 0 0
BITMAP
3C
66
C0
C0
66
3C
08
30
ENDCHAR
STARTCHAR Egrave
ENCODING 200
SWIDTH 1000 0
DWIDTH 8 0
BBX 7 7 0 1
BITMAP
20
10
FE
C0
FC
C0
FE
ENDCHAR
STARTCHAR Eacute
ENCODING 201
SWIDTH 1000 0
DWIDTH 8 0
BBX 7 7 0 1
BITMAP
08
10
FE
C0
FC
C0
FE
ENDCHAR
STARTCHAR Ecircumflex
ENCODING 202
SWIDTH 1000 0
DWIDTH 8 0
BBX 7 7 0 1
BITMAP
38
6C
FE
C0
FC
C0
FE
ENDCHAR
STARTCHAR Edieresis
ENCODING 203
SWIDTH 1000 0
DWIDTH 8 0
BBX 7 7 0 1
BITMAP
6C
00
FE
C0
FC
C0
FE
ENDCHAR
STARTCHAR Igrave
ENCODING 204
SWIDTH 1000 0
DWIDTH 8 0
BBX 6 7 1 1
BITMAP
20
10
FC
30
30
30
FC
ENDCHAR
STARTCHAR Iacute
ENCODING 205
SWIDTH 1000 0
DWIDTH 8 0
BBX 6 7 1 1
BITMAP
10
20
FC
30
30
30
FC
ENDCHAR
STARTCHAR Icircumflex
ENCODING 206
SWIDTH 1000 0
DWIDTH 8 0
BBX 6 7 1 1
BITMAP
30
78
FC
30
30
30
FC
ENDCHAR
STARTCHAR Idieresis
ENCODING 207
SWIDTH 1000 0
DWIDTH 8 0
BBX 6 7 1 1
BITMAP
CC
00
FC
30
30
30
FC
ENDCHAR
STARTCHAR Eth
ENCODING 208
SWIDTH 1000 0
DWIDTH 8 0
BBX 7 7 0 1
BITMAP
78
6C
66
F6
66
6C
78
ENDCHAR
STARTCHAR Ntilde
ENCODING 209
SWIDTH 1000 0
DWIDTH 8 0
BBX 7 7 0 1
BITMAP
34
58
E6
F6
FE
DE
CE
ENDCHAR
STARTCHAR Ograve
ENCODING 210
SWIDTH 1000 0
DWIDTH 8 0
BBX 7 7 0 1
BITMAP
20
10
7C
C6
C6
C6
7C
ENDCHAR
STARTCHAR Oacute
ENCODING 211
SWIDTH 1000 0
DWIDTH 8 0
BBX 7 7 0 1
BITMAP
08
10
7C
C6
C6
C6
7C
ENDCHAR
STARTCHAR Ocircumflex
ENCODING 212
SWIDTH 1000 0
DWIDTH 8 0
BBX 7 7 0 1
BITMAP
38
6C
7C
C6
C6
C6
7C
ENDCHAR
STARTCHAR Otilde
ENCODING 213
SWIDTH 1000 0
DWIDTH 8 0
BBX 7 7 0 1
BITMAP
34
58
7C
C6
C6
C6
7C
ENDCHAR
STARTCHAR Odieresis
ENCODING 214
SWIDTH 1000 0
DWIDTH 8 0
BBX 7 7 0 1
BITMAP
6C
00
7C
C6
C6
C6
7C
ENDCHAR
STARTCHAR multiply
ENCODING 215
SWIDTH 1000 0
DWIDTH 8 0
BBX 5 5 1 2
BITMAP
88
50
20
50
88
ENDCHAR
STARTCHAR Oslash
ENCODING 216
SWIDTH 1000 0
DWIDTH 8 0
BBX 7 7 0 1
BITMAP
7C
C6
CE
D6
E6
C6
7C
ENDCHAR
STARTCHAR Ugrave
ENCODING 217
SWIDTH 1000 0
DWIDTH 8 0
BBX 7 7 0 1
BITMAP
20
10
C6
C6
C6
C6
7C
ENDCHAR
STARTCHAR Uacute
ENCODING 218
SWIDTH 1000 0
DWIDTH 8 0
BBX 7 7 0 1
BITMAP
08
10
C6
C6
C6
C6
7C
ENDCHAR
STARTCHAR Ucircumflex
ENCODING 219
SWIDTH 1000 0
DWIDTH 8 0
BBX 7 7 0 1
BITMAP
38
6C
00
C6
C6
C6
7C
ENDCHAR
STARTCHAR Udieresis
ENCODING 220
SWIDTH 1000 0
DWIDTH 8 0
BBX 7 7 0 1
BITMAP
6C
00
C6
C6
C6
C6
7C
ENDCHAR
STARTCHAR Yacute
ENCODING 221
SWIDTH 1000 0
DWIDTH 8 0
BBX 6 7 1 1
BITMAP
10
20
CC
CC
78
30
30
ENDCHAR
STARTCHAR Thorn
ENCODING 222
SWIDTH 1000 0
DWIDTH 8 0
BBX 7 7 0 1
BITMAP
C0
FC
C6
C6
C6
FC
C0
ENDCHAR
STARTCHAR germandbls
ENCODING 223
SWIDTH 1000 0
DWIDTH 8 0
BBX 6 7 1 1
BITMAP
78
CC
CC
D8
CC
EC
D8
ENDCHAR
STARTCHAR agrave
ENCODING 224
SWIDTH 1000 0
DWIDTH 8 0
BBX 7 7 0 1
BITMAP
20
10
7C
06
7E
C6
7E
ENDCHAR
STARTCHAR aacute
ENCODING 225
SWIDTH 1000 0
DWIDTH 8 0
BBX 7 7 0 1
BITMAP
08
10
7C
06
7E
C6
7E
ENDCHAR
STARTCHAR acircumflex
ENCODING 226
SWIDTH 1000 0
DWIDTH 8 0
BBX 7 7 0 1
BITMAP
38
6C
7C
06
7E
C6
7E
ENDCHAR
STARTCHAR atilde
ENCODING 227
SWIDTH 1000 0
DWIDTH 8 0
BBX 7 7 0 1
BITMAP
34
58
7C
06
7E
C6
7E
ENDCHAR
STARTCHAR adieresis
ENCODING 228
SWIDTH 1000 0
DWIDTH 8 0
BBX 7 7 0 1
BITMAP
6C
00
7C
06
7E
C6
7E
ENDCHAR
STARTCHAR aring
ENCODING 229
SWIDTH 1000 0
DWIDTH 8 0
BBX 7 7 0 1
BITMAP
10
28
7C
06
7E
C6
7E
ENDCHAR
STARTCHAR ae
ENCODING 230
SWIDTH 1000 0
DWIDTH 8 0
BBX 7 5 0 1
BITMAP
7C
16
7E
D0
7C
ENDCHAR
STARTCHAR ccedilla
ENCODING 231
SWIDTH 1000 0
DWIDTH 8 0
BBX 7 6 0 0
BITMAP
7E
C0
C0
7E
08
30
ENDCHAR
STARTCHAR egrave
ENCODING 232
SWIDTH 1000 0
DWIDTH 8 0
BBX 7 7 0 1
BITMAP
20
10
7C
C6
FE
C0
7C
ENDCHAR
STARTCHAR eacute
ENCODING 233
SWIDTH 1000 0
DWIDTH 8 0
BBX 7 7 0 1
BITMAP
08
10
7C
C6
FE
C0
7C
ENDCHAR
STARTCHAR ecircumflex
ENCODING 234
SWIDTH 1000 0
DWIDTH 8 0
BBX 7 7 0 1
BITMAP
38
6C
7C
C6
FE
C0
7C
ENDCHAR
STARTCHAR edieresis
ENCODING 235
SWIDTH 1000 0
DWIDTH 8 0
BBX 7 7 0 1
BITMAP
6C
00
7C
C6
FE
C0
7C
ENDCHAR
STARTCHAR igrave
ENCODING 236
SWIDTH 1000 0
DWIDTH 8 0
BBX 6 7 1 1
BITMAP
40
20
00
70
30
30
FC
ENDCHAR
STARTCHAR iacute
ENCODING 237
SWIDTH 1000 0
DWIDTH 8 0
BBX 6 7 1 1
BITMAP
10
20
00
70
30
30
FC
ENDCHAR
STARTCHAR icircumflex
ENCODING 238
SWIDTH 1000 0
DWIDTH 8 0
BBX 6 7 1 1
BITMAP
70
D8
00
70
30
30
FC
ENDCHAR
STARTCHAR idieresis
ENCODING 239
SWIDTH 1000 0
DWIDTH 8 0
BBX 6 7 1 1
BITMAP
D8
00
70
30
30
30
FC
ENDCHAR
STARTCHAR eth
ENCODING 240
SWIDTH 1000 0
DWIDTH 8 0
BBX 7 7 0 1
BITMAP
64
78
98
7C
C6
C6
7C
ENDCHAR
STARTCHAR ntilde
ENCODING 241
SWIDTH 1000 0
DWIDTH 8 0
BBX 7 7 0 1
BITMAP
34
58
FC
C6
C6
C6
C6
ENDCHAR
STARTCHAR ograve
ENCODING 242
SWIDTH 1000 0
DWIDTH 8 0
BBX 7 7 0 1
BITMAP
20
10
7C
C6
C6
C6
7C
ENDCHAR
STARTCHAR oacute
ENCODING 243
SWIDTH 1000 0
DWIDTH 8 0
BBX 7 7 0 1
BITMAP
08
10
7C
C6
C6
C6
7C
ENDCHAR
STARTCHAR ocircumflex
ENCODING 244
SWIDTH 1000 0
DWIDTH 8 0
BBX 7 7 0 1
BITMAP
38
6C
7C
C6
C6
C6
7C
ENDCHAR
STARTCHAR otilde
ENCODING 245
SWIDTH 1000 0
DWIDTH 8 0
BBX 7 7 0 1
BITMAP
34
58
7C
C6
C6
C6
7C
ENDCHAR
STARTCHAR odieresis
ENCODING 246
SWIDTH 1000 0
DWIDTH 8 0
BBX 7 7 0 1
BITMAP
6C
00
7C
C6
C6
C6
7C
ENDCHAR
STARTCHAR divide
ENCODING 247
SWIDTH 1000 0
DWIDTH 8 0
BBX 6 5 1 2
BITMAP
30
00
FC
00
30
ENDCHAR
STARTCHAR oslash
ENCODING 248
SWIDTH 1000 0
DWIDTH 8 0
BBX 7 5 0 1
BITMAP
7C
CE
D6
E6
7C
ENDCHAR
STARTCHAR ugrave
ENCODING 249
SWIDTH 1000 0
DWIDTH 8 0
BBX 7 7 0 1
BITMAP
20
10
C6
C6
C6
C6
7E
ENDCHAR
STARTCHAR uacute
ENCODING 250
SWIDTH 1000 0
DWIDTH 8 0
BBX 7 7 0 1
BITMAP
08
10
C6
C6
C6
C6
7E
ENDCHAR
STARTCHAR ucircumflex
ENCODING 251
SWIDTH 1000 0
DWIDTH 8 0
BBX 7 7 0 1
BITMAP
38
6C
00
C6
C6
C6
7E
ENDCHAR
STARTCHAR udieresis
ENCODING 252
SWIDTH 1000 0
DWIDTH 8 0
BBX 7 7 0 1
BITMAP
6C
00
C6
C6
C6
C6
7E
ENDCHAR
STARTCHAR yacute
ENCODING 253
SWIDTH 1000 0
DWIDTH 8 0
BBX 7 8 0 0
BITMAP
08
10
C6
C6
C6
7E
06
7C
ENDCHAR
STARTCHAR thorn
ENCODING 254
SWIDTH 1000 0
DWIDTH 8 0
BBX 7 8 0 0
BITMAP
C0
C0
FC
C6
C6
FC
C0
C0
ENDCHAR
STARTCHAR ydieresis
ENCODING 255
SWIDTH 1000 0
DWIDTH 8 0
BBX 7 8 0 0
BITMAP
6C
00
C6
C6
C6
7E
06
7C
ENDCHAR
STARTCHAR Amacron
ENCODING 256
SWIDTH 1000 0
DWIDTH 8 0
BBX 7 7 0 1
BITMAP
7C
00
38
6C
C6
FE
C6
ENDCHAR
STARTCHAR amacron
ENCODING 257
SWIDTH 1000 0
DWIDTH 8 0
BBX 7 7 0 1
BITMAP
7C
00
7C
06
7E
C6
7E
ENDCHAR
STARTCHAR Abreve
ENCODING 258
SWIDTH 1000 0
DWIDTH 8 0
BBX 7 7 0 1
BITMAP
44
38
38
6C
C6
FE
C6
ENDCHAR
STARTCHAR abreve
ENCODING 259
SWIDTH 1000 0
DWIDTH 8 0
BBX 7 7 0 1
BITMAP
44
38
7C
06
7E
C6
7E
ENDCHAR
STARTCHAR Aogonek
ENCODING 260
SWIDTH 1000 0
DWIDTH 8 0
BBX 7 8 0 0
BITMAP
38
6C
C6
FE
C6
04
08
06
ENDCHAR
STARTCHAR aogonek
ENCODING 261
SWIDTH 1000 0
DWIDTH 8 0
BBX 7 8 0 0
BITMAP
7C
06
7E
C6
7E
10
20
18
ENDCHAR
STARTCHAR Cacute
ENCODING 262
SWIDTH 1000 0
DWIDTH 8 0
BBX 7 7 0 1
BITMAP
08
10
3C
66
C0
66
3C
ENDCHAR
STARTCHAR cacute
ENCODING 263
SWIDTH 1000 0
DWIDTH 8 0
BBX 7 7 0 1
BITMAP
08
10
7E
C0
C0
C0
7E
ENDCHAR
STARTCHAR Ccircumflex
ENCODING 264
SWIDTH 1000 0
DWIDTH 8 0
BBX 7 7 0 1
BITMAP
38
6C
3C
66
C0
66
3C
ENDCHAR
STARTCHAR ccircumflex
ENCODING 265
SWIDTH 1000 0
DWIDTH 8 0
BBX 7 7 0 1
BITMAP
38
6C
7E
C0
C0
C0
7E
ENDCHAR
STARTCHAR Cdotaccent
ENCODING 266
SWIDTH 1000 0
DWIDTH 8 0
BBX 7 7 0 1
BITMAP
18
00
3C
66
C0
66
3C
ENDCHAR
STARTCHAR cdotaccent
ENCODING 267
SWIDTH 1000 0
DWIDTH 8 0
BBX 7 7 0 1
BITMAP
18
00
7E
C0
C0
C0
7E
ENDCHAR
STARTCHAR Ccaron
ENCODING 268
SWIDTH 1000 0
DWIDTH 8 0
BBX 7 7 0 1
BITMAP
66
3C
3C
66
C0
66
3C
ENDCHAR
STARTCHAR ccaron
ENCODING 269
SWIDTH 1000 0
DWIDTH 8 0
BBX 7 7 0 1
BITMAP
6C
38
7E
C0
C0
C0
7E
ENDCHAR
STARTCHAR Dcaron
ENCODING 270
SWIDTH 1000 0
DWIDTH 8 0
BBX 7 7 0 1
BITMAP
6C
38
F8
CC
C6
CC
F8
ENDCHAR
STARTCHAR dcaron
ENCODING 271
SWIDTH 1000 0
DWIDTH 8 0
BBX 8 7 0 1
BITMAP
1B
1B
7A
D8
D8
D8
78
ENDCHAR
STARTCHAR Dcroat
ENCODING 272
SWIDTH 1000 0
DWIDTH 8 0
BBX 7 7 0 1
BITMAP
78
6C
66
F6
66
6C
78
ENDCHAR
STARTCHAR dcroat
ENCODING 273
SWIDTH 1000 0
DWIDTH 8 0
BBX 7 7 0 1
BITMAP
0C
1E
7C
CC
CC
CC
7C
ENDCHAR
STARTCHAR Emacron
ENCODING 274
SWIDTH 1000 0
DWIDTH 8 0
BBX 7 7 0 1
BITMAP
7C
00
FE
C0
FC
C0
FE
ENDCHAR
STARTCHAR emacron
ENCODING 275
SWIDTH 1000 0
DWIDTH 8 0
BBX 7 7 0 1
BITMAP
7C
00
7C
C6
FE
C0
7C
ENDCHAR
STARTCHAR Ebreve
ENCODING 276
SWIDTH 1000 0
DWIDTH 8 0
BBX 7 7 0 1
BITMAP
44
38
FE
C0
FC
C0
FE
ENDCHAR
STARTCHAR ebreve
ENCODING 277
SWIDTH 1000 0
DWIDTH 8 0
BBX 7 7 0 1
BITMAP
44
38
7C
C6
FE
C0
7C
ENDCHAR
STARTCHAR Edotaccent
ENCODING 278
SWIDTH 1000 0
DWIDTH 8 0
BBX 7 7 0 1
BITMAP
18
00
FE
C0
FC
C0
FE
ENDCHAR
STARTCHAR edotaccent
ENCODING 279
SWIDTH 1000 0
DWIDTH 8 0
BBX 7 7 0 1
BITMAP
18
00
7C
C6
FE
C0
7C
ENDCHAR
STARTCHAR Eogonek
ENCODING 280
SWIDTH 1000 0
DWIDTH 8 0
BBX 7 8 0 0
BITMAP
FE
C0
FC
C0
FE
10
20
18
ENDCHAR
STARTCHAR eogonek
ENCODING 281
SWIDTH 1000 0
DWIDTH 8 0
BBX 7 8 0 0
BITMAP
7C
C6
FE
C0
7C
10
20
18
ENDCHAR
STARTCHAR Ecaron
ENCODING 282
SWIDTH 1000 0
DWIDTH 8 0
BBX 7 7 0 1
BITMAP
6C
38
FE
C0
FC
C0
FE
ENDCHAR
STARTCHAR ecaron
ENCODING 283
SWIDTH 1000 0
DWIDTH 8 0
BBX 7 7 0 1
BITMAP
6C
38
7C
C6
FE
C0
7C
ENDCHAR
STARTCHAR Gcircumflex
ENCODING 284
SWIDTH 1000 0
DWIDTH 8 0
BBX 7 7 0 1
BITMAP
38
6C
7E
C0
CE
C6
7E
ENDCHAR
STARTCHAR gcircumflex
ENCODING 285
SWIDTH 1000 0
DWIDTH 8 0
BBX 7 8 0 0
BITMAP
38
6C
7E
C6
C6
7E
06
7C
ENDCHAR
STARTCHAR Gbreve
ENCODING 286
SWIDTH 1000 0
DWIDTH 8 0
BBX 7 7 0 1
BITMAP
44
38
7E
C0
CE
C6
7E
ENDCHAR
STARTCHAR gbreve
ENCODING 287
SWIDTH 1000 0
DWIDTH 8 0
BBX 7 8 0 0
BITMAP
44
38
7E
C6
C6
7E
06
7C
ENDCHAR
STARTCHAR Gdotaccent
ENCODING 288
SWIDTH 1000 0
DWIDTH 8 0
BBX 7 7 0 1
BITMAP
18
00
7E
C0
CE
C6
7E
ENDCHAR
STARTCHAR gdotaccent
ENCODING 289
SWIDTH 1000 0
DWIDTH 8 0
BBX 7 8 0 0
BITMAP
18
00
7E
C6
C6
7E
06
7C
ENDCHAR
STARTCHAR Gcommaaccent
ENCODING 290
SWIDTH 1000 0
DWIDTH 8 0
BBX 7 8 0 0
BITMAP
3E
60
C0
CE
66
3E
18
30
ENDCHAR
STARTCHAR gcommaaccent
ENCODING 291
SWIDTH 1000 0
DWIDTH 8 0
BBX 7 8 0 0
BITMAP
18
30
7E
C6
C6
7E
06
7C
ENDCHAR
STARTCHAR Hcircumflex
ENCODING 292
SWIDTH 1000 0
DWIDTH 8 0
BBX 7 7 0 1
BITMAP
38
EE
C6
C6
FE
C6
C6
ENDCHAR
STARTCHAR hcircumflex
ENCODING 293
SWIDTH 1000 0
DWIDTH 8 0
BBX 7 7 0 1
BITMAP
38
EC
C0
FC
C6
C6
C6
ENDCHAR
STARTCHAR Hbar
ENCODING 294
SWIDTH 1000 0
DWIDTH 8 0
BBX 7 7 0 1
BITMAP
C6
FE
C6
FE
C6
C6
C6
ENDCHAR
STARTCHAR hbar
ENCODING 295
SWIDTH 1000 0
DWIDTH 8 0
BBX 7 7 0 1
BITMAP
60
F0
7C
66
66
66
66
ENDCHAR
STARTCHAR Itilde
ENCODING 296
SWIDTH 1000 0
DWIDTH 8 0
BBX 6 7 1 1
BITMAP
64
98
FC
30
30
30
FC
ENDCHAR
STARTCHAR itilde
ENCODING 297
SWIDTH 1000 0
DWIDTH 8 0
BBX 6 7 1 1
BITMAP
64
98
00
70
30
30
FC
ENDCHAR
STARTCHAR Imacron
ENCODING 298
SWIDTH 1000 0
DWIDTH 8 0
BBX 6 7 1 1
BITMAP
FC
00
FC
30
30
30
FC
ENDCHAR
STARTCHAR imacron
ENCODING 299
SWIDTH 1000 0
DWIDTH 8 0
BBX 6 7 1 1
BITMAP
F8
00
70
30
30
30
FC
ENDCHAR
STARTCHAR Ibreve
ENCODING 300
SWIDTH 1000 0
DWIDTH 8 0
BBX 6 7 1 1
BITMAP
48
30
FC
30
30
30
FC
ENDCHAR
STARTCHAR ibreve
ENCODING 301
SWIDTH 1000 0
DWIDTH 8 0
BBX 6 7 1 1
BITMAP
88
70
70
30
30
30
FC
ENDCHAR
STARTCHAR Iogonek
ENCODING 302
SWIDTH 1000 0
DWIDTH 8 0
BBX 6 8 1 0
BITMAP
FC
30
30
30
FC
20
40
30
ENDCHAR
STARTCHAR iogonek
ENCODING 303
SWIDTH 1000 0
DWIDTH 8 0
BBX 6 8 1 0
BITMAP
30
00
70
30
FC
20
40
30
ENDCHAR
STARTCHAR Idotaccent
ENCODING 304
SWIDTH 1000 0
DWIDTH 8 0
BBX 6 7 1 1
BITMAP
30
00
FC
30
30
30
FC
ENDCHAR
STARTCHAR dotlessi
ENCODING 305
SWIDTH 1000 0
DWIDTH 8 0
BBX 6 5 1 1
BITMAP
70
30
30
30
FC
ENDCHAR
STARTCHAR IJ
ENCODING 306
SWIDTH 1000 0
DWIDTH 8 0
BBX 7 7 0 1
BITMAP
F6
66
66
66
F6
06
7C
ENDCHAR
STARTCHAR ij
ENCODING 307
SWIDTH 1000 0
DWIDTH 8 0
BBX 7 8 0 0
BITMAP
66
00
EE
66
66
66
06
3C
ENDCHAR
STARTCHAR Jcircumflex
ENCODING 308
SWIDTH 1000 0
DWIDTH 8 0
BBX 7 7 0 1
BITMAP
1C
36
06
06
06
C6
7C
ENDCHAR
STARTCHAR jcircumflex
ENCODING 309
SWIDTH 1000 0
DWIDTH 8 0
BBX 6 8 1 0
BITMAP
38
6C
00
38
18
18
18
F0
ENDCHAR
STARTCHAR Kcommaaccent
ENCODING 310
SWIDTH 1000 0
DWIDTH 8 0
BBX 7 8 0 0
BITMAP
CC
D8
F0
F8
DC
CE
30
60
ENDCHAR
STARTCHAR kcommaaccent
ENCODING 311
SWIDTH 1000 0
DWIDTH 8 0
BBX 7 8 0 0
BITMAP
C0
CE
FC
F8
DC
CE
30
60
ENDCHAR
STARTCHAR kgreenlandic
ENCODING 312
SWIDTH 1000 0
DWIDTH 8 0
BBX 7 5 0 1
BITMAP
C6
CC
F8
CC
C6
ENDCHAR
STARTCHAR Lacute
ENCODING 313
SWIDTH 1000 0
DWIDTH 8 0
BBX 6 7 1 1
BITMAP
10
E0
C0
C0
C0
C0
FC
ENDCHAR
STARTCHAR lacute
ENCODING 314
SWIDTH 1000 0
DWIDTH 8 0
BBX 6 7 0 1
BITMAP
10
20
70
30
30
30
FC
ENDCHAR
STARTCHAR Lcommaaccent
ENCODING 315
SWIDTH 1000 0
DWIDTH 8 0
BBX 6 8 1 0
BITMAP
C0
C0
C0
C0
C0
FC
30
60
ENDCHAR
STARTCHAR lcommaaccent
ENCODING 316
SWIDTH 1000 0
DWIDTH 8 0
BBX 6 8 1 0
BITMAP
70
30
30
30
30
FC
30
60
ENDCHAR
STARTCHAR Lcaron
ENCODING 317
SWIDTH 1000 0
DWIDTH 8 0
BBX 6 7 1 1
BITMAP
CC
CC
C8
C0
C0
C0
FC
ENDCHAR
STARTCHAR lcaron
ENCODING 318
SWIDTH 1000 0
DWIDTH 8 0
BBX 7 7 0 1
BITMAP
76
36
34
30
30
30
FC
ENDCHAR
STARTCHAR Ldot
ENCODING 319
SWIDTH 1000 0
DWIDTH 8 0
BBX 6 7 1 1
BITMAP
C0
C0
D8
D8
C0
C0
FC
ENDCHAR
STARTCHAR ldot
ENCODING 320
SWIDTH 1000 0
DWIDTH 8 0
BBX 7 7 0 1
BITMAP
70
30
36
36
30
30
FC
ENDCHAR
STARTCHAR Lslash
ENCODING 321
SWIDTH 1000 0
DWIDTH 8 0
BBX 7 7 0 1
BITMAP
60
60
70
E0
60
60
7E
ENDCHAR
STARTCHAR lslash
ENCODING 322
SWIDTH 1000 0
DWIDTH 8 0
BBX 6 7 1 1
BITMAP
70
30
38
70
30
30
FC
ENDCHAR
STARTCHAR Nacute
ENCODING 323
SWIDTH 1000 0
DWIDTH 8 0
BBX 7 7 0 1
BITMAP
08
10
E6
F6
FE
DE
CE
ENDCHAR
STARTCHAR nacute
ENCODING 324
SWIDTH 1000 0
DWIDTH 8 0
BBX 7 7 0 1
BITMAP
08
10
FC
C6
C6
C6
C6
ENDCHAR
STARTCHAR Ncommaaccent
ENCODING 325
SWIDTH 1000 0
DWIDTH 8 0
BBX 7 8 0 0
BITMAP
E6
F6
FE
DE
CE
C6
18
30
ENDCHAR
STARTCHAR ncommaaccent
ENCODING 326
SWIDTH 1000 0
DWIDTH 8 0
BBX 7 7 0 0
BITMAP
FC
C6
C6
C6
C6
18
30
ENDCHAR
STARTCHAR Ncaron
ENCODING 327
SWIDTH 1000 0
DWIDTH 8 0
BBX 7 7 0 1
BITMAP
6C
38
E6
F6
FE
DE
CE
ENDCHAR
STARTCHAR ncaron
ENCODING 328
SWIDTH 1000 0
DWIDTH 8 0
BBX 7 7 0 1
BITMAP
6C
38
FC
C6
C6
C6
C6
ENDCHAR
STARTCHAR napostrophe
ENCODING 329
SWIDTH 1000 0
DWIDTH 8 0
BBX 7 7 0 1
BITMAP
C0
C0
BC
36
36
36
36
ENDCHAR
STARTCHAR Eng
ENCODING 330
SWIDTH 1000 0
DWIDTH 8 0
BBX 7 8 0 0
BITMAP
E6
F6
FE
DE
CE
C6
06
3C
ENDCHAR
STARTCHAR eng
ENCODING 331
SWIDTH 1000 0
DWIDTH 8 0
BBX 7 7 0 0
BITMAP
FC
C6
C6
C6
C6
06
3C
ENDCHAR
STARTCHAR Omacron
ENCODING 332
SWIDTH 1000 0
DWIDTH 8 0
BBX 7 7 0 1
BITMAP
7C
00
7C
C6
C6
C6
7C
ENDCHAR
STARTCHAR omacron
ENCODING 333
SWIDTH 1000 0
DWIDTH 8 0
BBX 7 7 0 1
BITMAP
7C
00
7C
C6
C6
C6
7C
ENDCHAR
STARTCHAR Obreve
ENCODING 334
SWIDTH 1000 0
DWIDTH 8 0
BBX 7 7 0 1
BITMAP
44
38
7C
C6
C6
C6
7C
ENDCHAR
STARTCHAR obreve
ENCODING 335
SWIDTH 1000 0
DWIDTH 8 0
BBX 7 7 0 1
BITMAP
44
38
7C
C6
C6
C6
7C
ENDCHAR
STARTCHAR Ohungarumlaut
ENCODING 336
SWIDTH 1000 0
DWIDTH 8 0
BBX 7 7 0 1
BITMAP
24
48
7C
C6
C6
C6
7C
ENDCHAR
STARTCHAR ohungarumlaut
ENCODING 337
SWIDTH 1000 0
DWIDTH 8 0
BBX 7 7 0 1
BITMAP
24
48
7C
C6
C6
C6
7C
ENDCHAR
STARTCHAR OE
ENCODING 338
SWIDTH 1000 0
DWIDTH 8 0
BBX 7 7 0 1
BITMAP
7E
D8
D8
DE
D8
D8
7E
ENDCHAR
STARTCHAR oe
ENCODING 339
SWIDTH 1000 0
DWIDTH 8 0
BBX 7 5 0 1
BITMAP
7C
D6
DE
D0
7C
ENDCHAR
STARTCHAR Racute
ENCODING 340
SWIDTH 1000 0
DWIDTH 8 0
BBX 7 7 0 1
BITMAP
08
10
FC
CE
F8
DC
CE
ENDCHAR
STARTCHAR racute
ENCODING 341
SWIDTH 1000 0
DWIDTH 8 0
BBX 6 7 1 1
BITMAP
10
20
DC
E0
C0
C0
C0
ENDCHAR
STARTCHAR Rcommaaccent
ENCODING 342
SWIDTH 1000 0
DWIDTH 8 0
BBX 7 8 0 0
BITMAP
FC
C6
CE
F8
DC
CE
18
30
ENDCHAR
STARTCHAR rcommaaccent
ENCODING 343
SWIDTH 1000 0
DWIDTH 8 0
BBX 6 7 1 0
BITMAP
DC
E0
C0
C0
C0
60
C0
ENDCHAR
STARTCHAR Rcaron
ENCODING 344
SWIDTH 1000 0
DWIDTH 8 0
BBX 7 7 0 1
BITMAP
28
10
FC
CE
F8
DC
CE
ENDCHAR
STARTCHAR rcaron
ENCODING 345
SWIDTH 1000 0
DWIDTH 8 0
BBX 6 7 1 1
BITMAP
6C
38
DC
E0
C0
C0
C0
ENDCHAR
STARTCHAR Sacute
ENCODING 346
SWIDTH 1000 0
DWIDTH 8 0
BBX 7 7 0 1
BITMAP
08
10
7C
C0
7C
06
FC
ENDCHAR
STARTCHAR sacute
ENCODING 347
SWIDTH 1000 0
DWIDTH 8 0
BBX 7 7 0 1
BITMAP
08
10
7C
C0
7C
06
FC
ENDCHAR
STARTCHAR Scircumflex
ENCODING 348
SWIDTH 1000 0
DWIDTH 8 0
BBX 7 7 0 1
BITMAP
38
6C
7C
C0
7C
06
FC
ENDCHAR
STARTCHAR scircumflex
ENCODING 349
SWIDTH 1000 0
DWIDTH 8 0
BBX 7 7 0 1
BITMAP
38
6C
7C
C0
7C
06
FC
ENDCHAR
STARTCHAR Scedilla
ENCODING 350
SWIDTH 1000 0
DWIDTH 8 0
BBX 7 8 0 0
BITMAP
7C
C0
7C
06
C6
7C
08
30
ENDCHAR
STARTCHAR scedilla
ENCODING 351
SWIDTH 1000 0
DWIDTH 8 0
BBX 7 7 0 0
BITMAP
7C
C0
7C
06
FC
08
30
ENDCHAR
STARTCHAR Scaron
ENCODING 352
SWIDTH 1000 0
DWIDTH 8 0
BBX 7 7 0 1
BITMAP
6C
38
7C
C0
7C
06
FC
ENDCHAR
STARTCHAR scaron
ENCODING 353
SWIDTH 1000 0
DWIDTH 8 0
BBX 7 7 0 1
BITMAP
6C
38
7C
C0
7C
06
FC
ENDCHAR
STARTCHAR Tcommaaccent
ENCODING 354
SWIDTH 1000 0
DWIDTH 8 0
BBX 6 8 1 0
BITMAP
FC
30
30
30
30
30
10
60
ENDCHAR
STARTCHAR tcommaaccent
ENCODING 355
SWIDTH 1000 0
DWIDTH 8 0
BBX 6 8 1 0
BITMAP
30
30
FC
30
30
30
10
60
ENDCHAR
STARTCHAR Tcaron
ENCODING 356
SWIDTH 1000 0
DWIDTH 8 0
BBX 6 7 1 1
BITMAP
48
30
FC
30
30
30
30
ENDCHAR
STARTCHAR tcaron
ENCODING 357
SWIDTH 1000 0
DWIDTH 8 0
BBX 6 7 1 1
BITMAP
48
30
30
FC
30
30
30
ENDCHAR
STARTCHAR Tbar
ENCODING 358
SWIDTH 1000 0
DWIDTH 8 0
BBX 6 7 1 1
BITMAP
FC
30
30
38
70
30
30
ENDCHAR
STARTCHAR tbar
ENCODING 359
SWIDTH 1000 0
DWIDTH 8 0
BBX 6 7 1 1
BITMAP
30
30
FC
30
38
70
30
ENDCHAR
STARTCHAR Utilde
ENCODING 360
SWIDTH 1000 0
DWIDTH 8 0
BBX 7 7 0 1
BITMAP
34
58
C6
C6
C6
C6
7C
ENDCHAR
STARTCHAR utilde
ENCODING 361
SWIDTH 1000 0
DWIDTH 8 0
BBX 7 7 0 1
BITMAP
34
58
C6
C6
C6
C6
7E
ENDCHAR
STARTCHAR Umacron
ENCODING 362
SWIDTH 1000 0
DWIDTH 8 0
BBX 7 7 0 1
BITMAP
7C
00
C6
C6
C6
C6
7C
ENDCHAR
STARTCHAR umacron
ENCODING 363
SWIDTH 1000 0
DWIDTH 8 0
BBX 7 7 0 1
BITMAP
7C
00
C6
C6
C6
C6
7E
ENDCHAR
STARTCHAR Ubreve
ENCODING 364
SWIDTH 1000 0
DWIDTH 8 0
BBX 7 7 0 1
BITMAP
44
38
C6
C6
C6
C6
7C
ENDCHAR
STARTCHAR ubreve
ENCODING 365
SWIDTH 1000 0
DWIDTH 8 0
BBX 7 7 0 1
BITMAP
44
38
C6
C6
C6
C6
7E
ENDCHAR
STARTCHAR Uring
ENCODING 366
SWIDTH 1000 0
DWIDTH 8 0
BBX 7 7 0 1
BITMAP
38
6C
BA
C6
C6
C6
7C
ENDCHAR
STARTCHAR uring
ENCODING 367
SWIDTH 1000 0
DWIDTH 8 0
BBX 7 7 0 1
BITMAP
38
6C
BA
C6
C6
C6
7E
ENDCHAR
STARTCHAR Uhungarumlaut
ENCODING 368
SWIDTH 1000 0
DWIDTH 8 0
BBX 7 7 0 1
BITMAP
24
48
C6
C6
C6
C6
7C
ENDCHAR
STARTCHAR uhungarumlaut
ENCODING 369
SWIDTH 1000 0
DWIDTH 8 0
BBX 7 7 0 1
BITMAP
24
48
C6
C6
C6
C6
7E
ENDCHAR
STARTCHAR Uogonek
ENCODING 370
SWIDTH 1000 0
DWIDTH 8 0
BBX 7 8 0 0
BITMAP
C6
C6
C6
C6
7C
10
20
18
ENDCHAR
STARTCHAR uogonek
ENCODING 371
SWIDTH 1000 0
DWIDTH 8 0
BBX 7 8 0 0
BITMAP
C6
C6
C6
C6
7E
10
20
18
ENDCHAR
STARTCHAR Wcircumflex
ENCODING 372
SWIDTH 1000 0
DWIDTH 8 0
BBX 7 7 0 1
BITMAP
38
6C
C6
D6
FE
FE
EE
ENDCHAR
STARTCHAR wcircumflex
ENCODING 373
SWIDTH 1000 0
DWIDTH 8 0
BBX 7 7 0 1
BITMAP
38
6C
B6
B6
B6
B6
7E
ENDCHAR
STARTCHAR Ycircumflex
ENCODING 374
SWIDTH 1000 0
DWIDTH 8 0
BBX 6 7 1 1
BITMAP
30
48
CC
CC
78
30
30
ENDCHAR
STARTCHAR ycircumflex
ENCODING 375
SWIDTH 1000 0
DWIDTH 8 0
BBX 7 8 0 0
BITMAP
38
6C
C6
C6
C6
7E
06
7C
ENDCHAR
STARTCHAR Ydieresis
ENCODING 376
SWIDTH 1000 0
DWIDTH 8 0
BBX 6 7 1 1
BITMAP
CC
00
CC
CC
78
30
30
ENDCHAR
STARTCHAR Zacute
ENCODING 377
SWIDTH 1000 0
DWIDTH 8 0
BBX 7 7 0 1
BITMAP
08
10
FE
1C
38
70
FE
ENDCHAR
STARTCHAR zacute
ENCODING 378
SWIDTH 1000 0
DWIDTH 8 0
BBX 7 7 0 1
BITMAP
08
10
FE
1C
38
70
FE
ENDCHAR
STARTCHAR Zdotaccent
ENCODING 379
SWIDTH 1000 0
DWIDTH 8 0
BBX 7 7 0 1
BITMAP
18
00
FE
1C
38
70
FE
ENDCHAR
STARTCHAR zdotaccent
ENCODING 380
SWIDTH 1000 0
DWIDTH 8 0
BBX 7 7 0 1
BITMAP
18
00
FE
1C
38
70
FE
ENDCHAR
STARTCHAR Zcaron
ENCODING 381
SWIDTH 1000 0
DWIDTH 8 0
BBX 7 7 0 1
BITMAP
6C
38
FE
1C
38
70
FE
ENDCHAR
STARTCHAR zcaron
ENCODING 382
SWIDTH 1000 0
DWIDTH 8 0
BBX 7 7 0 1
BITMAP
6C
38
FE
1C
38
70
FE
ENDCHAR
STARTCHAR longs
ENCODING 383
SWIDTH 1000 0
DWIDTH 8 0
BBX 4 7 3 1
BITMAP
70
C0
C0
C0
C0
C0
C0
ENDCHAR
STARTCHAR florin
ENCODING 402
SWIDTH 1000 0
DWIDTH 8 0
BBX 6 7 1 1
BITMAP
1C
30
FC
30
30
30
E0
ENDCHAR
STARTCHAR circumflex
ENCODING 710
SWIDTH 1000 0
DWIDTH 8 0
BBX 5 2 1 6
BITMAP
70
D8
ENDCHAR
STARTCHAR caron
ENCODING 711
SWIDTH 1000 0
DWIDTH 8 0
BBX 5 2 1 6
BITMAP
D8
70
ENDCHAR
STARTCHAR uni02C9
ENCODING 713
SWIDTH 1000 0
DWIDTH 8 0
BBX 5 1 1 7
BITMAP
F8
ENDCHAR
STARTCHAR uni02CA
ENCODING 714
SWIDTH 1000 0
DWIDTH 8 0
BBX 2 2 3 6
BITMAP
40
80
ENDCHAR
STARTCHAR uni02CB
ENCODING 715
SWIDTH 1000 0
DWIDTH 8 0
BBX 2 2 3 6
BITMAP
80
40
ENDCHAR
STARTCHAR uni02D7
ENCODING 727
SWIDTH 1000 0
DWIDTH 8 0
BBX 5 1 1 4
BITMAP
F8
ENDCHAR
STARTCHAR breve
ENCODING 728
SWIDTH 1000 0
DWIDTH 8 0
BBX 5 2 1 6
BITMAP
88
70
ENDCHAR
STARTCHAR dotaccent
ENCODING 729
SWIDTH 1000 0
DWIDTH 8 0
BBX 2 1 3 7
BITMAP
C0
ENDCHAR
STARTCHAR ring
ENCODING 730
SWIDTH 1000 0
DWIDTH 8 0
BBX 5 3 1 5
BITMAP
70
D8
70
ENDCHAR
STARTCHAR ogonek
ENCODING 731
SWIDTH 1000 0
DWIDTH 8 0
BBX 3 3 2 0
BITMAP
40
80
60
ENDCHAR
STARTCHAR tilde
ENCODING 732
SWIDTH 1000 0
DWIDTH 8 0
BBX 5 2 1 6
BITMAP
68
B0
ENDCHAR
STARTCHAR hungarumlaut
ENCODING 733
SWIDTH 1000 0
DWIDTH 8 0
BBX 5 2 1 6
BITMAP
48
90
ENDCHAR
STARTCHAR uni037A
ENCODING 890
SWIDTH 1000 0
DWIDTH 8 0
BBX 3 2 3 0
BITMAP
80
60
ENDCHAR
STARTCHAR uni037E
ENCODING 894
SWIDTH 1000 0
DWIDTH 8 0
BBX 3 6 1 1
BITMAP
60
60
00
60
60
C0
ENDCHAR
STARTCHAR tonos
ENCODING 900
SWIDTH 1000 0
DWIDTH 8 0
BBX 2 2 3 6
BITMAP
40
80
ENDCHAR
STARTCHAR dieresistonos
ENCODING 901
SWIDTH 1000 0
DWIDTH 8 0
BBX 6 2 1 6
BITMAP
94
20
ENDCHAR
STARTCHAR Alphatonos
ENCODING 902
SWIDTH 1000 0
DWIDTH 8 0
BBX 7 7 0 1
BITMAP
58
BC
66
66
7E
66
66
ENDCHAR
STARTCHAR anoteleia
ENCODING 903
SWIDTH 1000 0
DWIDTH 8 0
BBX 2 2 2 3
BITMAP
C0
C0
ENDCHAR
STARTCHAR Epsilontonos
ENCODING 904
SWIDTH 1000 0
DWIDTH 8 0
BBX 8 7 0 1
BITMAP
7F
B0
30
3C
30
30
3F
ENDCHAR
STARTCHAR Etatonos
ENCODING 905
SWIDTH 1000 0
DWIDTH 8 0
BBX 8 7 0 1
BITMAP
73
B3
33
3F
33
33
33
ENDCHAR
STARTCHAR Iotatonos
ENCODING 906
SWIDTH 1000 0
DWIDTH 8 0
BBX 7 7 0 1
BITMAP
5E
8C
0C
0C
0C
0C
1E
ENDCHAR
STARTCHAR Omicrontonos
ENCODING 908
SWIDTH 1000 0
DWIDTH 8 0
BBX 8 7 0 1
BITMAP
5E
B3
33
33
33
33
1E
ENDCHAR
STARTCHAR Upsilontonos
ENCODING 910
SWIDTH 1000 0
DWIDTH 8 0
BBX 8 7 0 1
BITMAP
73
B3
33
1E
0C
0C
0C
ENDCHAR
STARTCHAR Omegatonos
ENCODING 911
SWIDTH 1000 0
DWIDTH 8 0
BBX 8 7 0 1
BITMAP
5C
B6
63
63
63
36
77
ENDCHAR
STARTCHAR iotadieresistonos
ENCODING 912
SWIDTH 1000 0
DWIDTH 8 0
BBX 6 7 0 1
BITMAP
94
20
70
30
30
30
1C
ENDCHAR
STARTCHAR Alpha
ENCODING 913
SWIDTH 1000 0
DWIDTH 8 0
BBX 7 7 0 1
BITMAP
38
6C
C6
C6
FE
C6
C6
ENDCHAR
STARTCHAR Beta
ENCODING 914
SWIDTH 1000 0
DWIDTH 8 0
BBX 7 7 0 1
BITMAP
FC
C6
C6
FC
C6
C6
FC
ENDCHAR
STARTCHAR Gamma
ENCODING 915
SWIDTH 1000 0
DWIDTH 8 0
BBX 6 7 1 1
BITMAP
FC
C0
C0
C0
C0
C0
C0
ENDCHAR
STARTCHAR Delta
ENCODING 916
SWIDTH 1000 0
DWIDTH 8 0
BBX 7 7 0 1
BITMAP
38
6C
C6
C6
C6
C6
FE
ENDCHAR
STARTCHAR Epsilon
ENCODING 917
SWIDTH 1000 0
DWIDTH 8 0
BBX 7 7 0 1
BITMAP
FE
C0
C0
FC
C0
C0
FE
ENDCHAR
STARTCHAR Zeta
ENCODING 918
SWIDTH 1000 0
DWIDTH 8 0
BBX 7 7 0 1
BITMAP
FE
0E
1C
38
70
E0
FE
ENDCHAR
STARTCHAR Eta
ENCODING 919
SWIDTH 1000 0
DWIDTH 8 0
BBX 7 7 0 1
BITMAP
C6
C6
C6
FE
C6
C6
C6
ENDCHAR
STARTCHAR Theta
ENCODING 920
SWIDTH 1000 0
DWIDTH 8 0
BBX 7 7 0 1
BITMAP
7C
C6
C6
FE
C6
C6
7C
ENDCHAR
STARTCHAR Iota
ENCODING 921
SWIDTH 1000 0
DWIDTH 8 0
BBX 6 7 1 1
BITMAP
FC
30
30
30
30
30
FC
ENDCHAR
STARTCHAR Kappa
ENCODING 922
SWIDTH 1000 0
DWIDTH 8 0
BBX 7 7 0 1
BITMAP
C6
CC
D8
F0
F8
DC
CE
ENDCHAR
STARTCHAR Lambda
ENCODING 923
SWIDTH 1000 0
DWIDTH 8 0
BBX 7 7 0 1
BITMAP
38
6C
C6
C6
C6
C6
C6
ENDCHAR
STARTCHAR Mu
ENCODING 924
SWIDTH 1000 0
DWIDTH 8 0
BBX 7 7 0 1
BITMAP
C6
EE
FE
FE
D6
C6
C6
ENDCHAR
STARTCHAR Nu
ENCODING 925
SWIDTH 1000 0
DWIDTH 8 0
BBX 7 7 0 1
BITMAP
C6
E6
F6
FE
DE
CE
C6
ENDCHAR
STARTCHAR Xi
ENCODING 926
SWIDTH 1000 0
DWIDTH 8 0
BBX 7 7 0 1
BITMAP
FE
00
00
7C
00
00
FE
ENDCHAR
STARTCHAR Omicron
ENCODING 927
SWIDTH 1000 0
DWIDTH 8 0
BBX 7 7 0 1
BITMAP
7C
C6
C6
C6
C6
C6
7C
ENDCHAR
STARTCHAR Pi
ENCODING 928
SWIDTH 1000 0
DWIDTH 8 0
BBX 7 7 0 1
BITMAP
FE
C6
C6
C6
C6
C6
C6
ENDCHAR
STARTCHAR Rho
ENCODING 929
SWIDTH 1000 0
DWIDTH 8 0
BBX 7 7 0 1
BITMAP
FC
C6
C6
C6
FC
C0
C0
ENDCHAR
STARTCHAR Sigma
ENCODING 931
SWIDTH 1000 0
DWIDTH 8 0
BBX 7 7 0 1
BITMAP
FE
66
30
1C
30
66
FE
ENDCHAR
STARTCHAR Tau
ENCODING 932
SWIDTH 1000 0
DWIDTH 8 0
BBX 6 7 1 1
BITMAP
FC
30
30
30
30
30
30
ENDCHAR
STARTCHAR Upsilon
ENCODING 933
SWIDTH 1000 0
DWIDTH 8 0
BBX 6 7 1 1
BITMAP
CC
CC
CC
78
30
30
30
ENDCHAR
STARTCHAR Phi
ENCODING 934
SWIDTH 1000 0
DWIDTH 8 0
BBX 7 7 0 1
BITMAP
10
7C
D6
D6
D6
7C
10
ENDCHAR
STARTCHAR Chi
ENCODING 935
SWIDTH 1000 0
DWIDTH 8 0
BBX 7 7 0 1
BITMAP
C6
EE
7C
38
7C
EE
C6
ENDCHAR
STARTCHAR Psi
ENCODING 936
SWIDTH 1000 0
DWIDTH 8 0
BBX 8 7 0 1
BITMAP
DB
DB
DB
7E
18
18
3C
ENDCHAR
STARTCHAR Omega
ENCODING 937
SWIDTH 1000 0
DWIDTH 8 0
BBX 7 7 0 1
BITMAP
38
6C
C6
C6
C6
6C
EE
ENDCHAR
STARTCHAR Iotadieresis
ENCODING 938
SWIDTH 1000 0
DWIDTH 8 0
BBX 6 7 1 1
BITMAP
CC
00
FC
30
30
30
FC
ENDCHAR
STARTCHAR Upsilondieresis
ENCODING 939
SWIDTH 1000 0
DWIDTH 8 0
BBX 6 7 1 1
BITMAP
CC
00
CC
CC
78
30
30
ENDCHAR
STARTCHAR alphatonos
ENCODING 940
SWIDTH 1000 0
DWIDTH 8 0
BBX 7 7 0 1
BITMAP
08
10
7E
C6
C6
C6
7E
ENDCHAR
STARTCHAR epsilontonos
ENCODING 941
SWIDTH 1000 0
DWIDTH 8 0
BBX 7 7 0 1
BITMAP
08
10
7E
C0
7C
C0
7E
ENDCHAR
STARTCHAR etatonos
ENCODING 942
SWIDTH 1000 0
DWIDTH 8 0
BBX 7 8 0 0
BITMAP
08
10
DC
66
66
66
66
06
ENDCHAR
STARTCHAR iotatonos
ENCODING 943
SWIDTH 1000 0
DWIDTH 8 0
BBX 5 7 1 1
BITMAP
20
40
E0
60
60
60
38
ENDCHAR
STARTCHAR upsilondieresistonos
ENCODING 944
SWIDTH 1000 0
DWIDTH 8 0
BBX 7 7 0 1
BITMAP
94
20
CC
66
66
66
3C
ENDCHAR
STARTCHAR alpha
ENCODING 945
SWIDTH 1000 0
DWIDTH 8 0
BBX 7 5 0 1
BITMAP
7E
C6
C6
C6
7E
ENDCHAR
STARTCHAR beta
ENCODING 946
SWIDTH 1000 0
DWIDTH 8 0
BBX 7 8 0 0
BITMAP
7C
C6
C6
FC
C6
C6
FC
C0
ENDCHAR
STARTCHAR gamma
ENCODING 947
SWIDTH 1000 0
DWIDTH 8 0
BBX 7 6 0 0
BITMAP
C6
66
66
3C
18
18
ENDCHAR
STARTCHAR delta
ENCODING 948
SWIDTH 1000 0
DWIDTH 8 0
BBX 7 7 0 1
BITMAP
0E
18
0C
7E
C6
C6
7C
ENDCHAR
STARTCHAR epsilon
ENCODING 949
SWIDTH 1000 0
DWIDTH 8 0
BBX 7 5 0 1
BITMAP
7E
C0
7C
C0
7E
ENDCHAR
STARTCHAR zeta
ENCODING 950
SWIDTH 1000 0
DWIDTH 8 0
BBX 7 8 0 0
BITMAP
7C
30
60
C0
C0
7C
06
0C
ENDCHAR
STARTCHAR eta
ENCODING 951
SWIDTH 1000 0
DWIDTH 8 0
BBX 7 6 0 0
BITMAP
DC
66
66
66
66
06
ENDCHAR
STARTCHAR theta
ENCODING 952
SWIDTH 1000 0
DWIDTH 8 0
BBX 7 7 0 1
BITMAP
38
6C
C6
FE
C6
6C
38
ENDCHAR
STARTCHAR iota
ENCODING 953
SWIDTH 1000 0
DWIDTH 8 0
BBX 5 5 1 1
BITMAP
E0
60
60
60
38
ENDCHAR
STARTCHAR kappa
ENCODING 954
SWIDTH 1000 0
DWIDTH 8 0
BBX 7 5 0 1
BITMAP
C6
CC
F8
CC
C6
ENDCHAR
STARTCHAR lambda
ENCODING 955
SWIDTH 1000 0
DWIDTH 8 0
BBX 7 7 0 1
BITMAP
C0
60
30
38
6C
C6
C6
ENDCHAR
STARTCHAR mu
ENCODING 956
SWIDTH 1000 0
DWIDTH 8 0
BBX 7 6 0 0
BITMAP
CC
CC
CC
CC
F6
C0
ENDCHAR
STARTCHAR nu
ENCODING 957
SWIDTH 1000 0
DWIDTH 8 0
BBX 7 5 0 1
BITMAP
C6
66
66
3C
18
ENDCHAR
STARTCHAR xi
ENCODING 958
SWIDTH 1000 0
DWIDTH 8 0
BBX 6 8 0 0
BITMAP
FC
60
38
60
C0
78
0C
18
ENDCHAR
STARTCHAR omicron
ENCODING 959
SWIDTH 1000 0
DWIDTH 8 0
BBX 7 5 0 1
BITMAP
7C
C6
C6
C6
7C
ENDCHAR
STARTCHAR pi
ENCODING 960
SWIDTH 1000 0
DWIDTH 8 0
BBX 7 5 0 1
BITMAP
FE
6C
6C
6C
E6
ENDCHAR
STARTCHAR rho
ENCODING 961
SWIDTH 1000 0
DWIDTH 8 0
BBX 7 6 0 0
BITMAP
7C
C6
C6
FC
C0
C0
ENDCHAR
STARTCHAR sigma1
ENCODING 962
SWIDTH 1000 0
DWIDTH 8 0
BBX 7 6 0 0
BITMAP
7C
C0
C0
7C
06
7C
ENDCHAR
STARTCHAR sigma
ENCODING 963
SWIDTH 1000 0
DWIDTH 8 0
BBX 7 5 0 1
BITMAP
7E
D8
CC
CC
78
ENDCHAR
STARTCHAR tau
ENCODING 964
SWIDTH 1000 0
DWIDTH 8 0
BBX 6 5 1 1
BITMAP
FC
30
30
30
1C
ENDCHAR
STARTCHAR upsilon
ENCODING 965
SWIDTH 1000 0
DWIDTH 8 0
BBX 7 5 0 1
BITMAP
CC
66
66
66
3C
ENDCHAR
STARTCHAR phi
ENCODING 966
SWIDTH 1000 0
DWIDTH 8 0
BBX 7 6 0 0
BITMAP
4C
D6
D6
D6
7C
10
ENDCHAR
STARTCHAR chi
ENCODING 967
SWIDTH 1000 0
DWIDTH 8 0
BBX 7 6 0 0
BITMAP
C6
6C
38
6C
C6
C6
ENDCHAR
STARTCHAR psi
ENCODING 968
SWIDTH 1000 0
DWIDTH 8 0
BBX 8 7 0 0
BITMAP
18
DB
DB
DB
DB
7E
18
ENDCHAR
STARTCHAR omega
ENCODING 969
SWIDTH 1000 0
DWIDTH 8 0
BBX 7 5 0 1
BITMAP
44
D6
D6
D6
6C
ENDCHAR
STARTCHAR iotadieresis
ENCODING 970
SWIDTH 1000 0
DWIDTH 8 0
BBX 6 7 0 1
BITMAP
D8
00
70
30
30
30
1C
ENDCHAR
STARTCHAR upsilondieresis
ENCODING 971
SWIDTH 1000 0
DWIDTH 8 0
BBX 7 7 0 1
BITMAP
6C
00
CC
66
66
66
3C
ENDCHAR
STARTCHAR omicrontonos
ENCODING 972
SWIDTH 1000 0
DWIDTH 8 0
BBX 7 7 0 1
BITMAP
08
10
7C
C6
C6
C6
7C
ENDCHAR
STARTCHAR upsilontonos
ENCODING 973
SWIDTH 1000 0
DWIDTH 8 0
BBX 7 7 0 1
BITMAP
08
10
CC
66
66
66
3C
ENDCHAR
STARTCHAR omegatonos
ENCODING 974
SWIDTH 1000 0
DWIDTH 8 0
BBX 7 7 0 1
BITMAP
08
10
44
D6
D6
D6
6C
ENDCHAR
STARTCHAR uni0400
ENCODING 1024
SWIDTH 1000 0
DWIDTH 8 0
BBX 7 7 0 1
BITMAP
20
10
FE
C0
FC
C0
FE
ENDCHAR
STARTCHAR afii10023
ENCODING 1025
SWIDTH 1000 0
DWIDTH 8 0
BBX 7 7 0 1
BITMAP
6C
00
FE
C0
FC
C0
FE
ENDCHAR
STARTCHAR afii10051
ENCODING 1026
SWIDTH 1000 0
DWIDTH 8 0
BBX 7 8 0 0
BITMAP
F8
60
7C
66
66
66
66
0C
ENDCHAR
STARTCHAR afii10052
ENCODING 1027
SWIDTH 1000 0
DWIDTH 8 0
BBX 6 7 1 1
BITMAP
10
20
FC
C0
C0
C0
C0
ENDCHAR
STARTCHAR afii10053
ENCODING 1028
SWIDTH 1000 0
DWIDTH 8 0
BBX 7 7 0 1
BITMAP
3C
66
C0
FC
C0
66
3C
ENDCHAR
STARTCHAR afii10054
ENCODING 1029
SWIDTH 1000 0
DWIDTH 8 0
BBX 7 7 0 1
BITMAP
78
CC
C0
7C
06
C6
7C
ENDCHAR
STARTCHAR afii10055
ENCODING 1030
SWIDTH 1000 0
DWIDTH 8 0
BBX 6 7 1 1
BITMAP
FC
30
30
30
30
30
FC
ENDCHAR
STARTCHAR afii10056
ENCODING 1031
SWIDTH 1000 0
DWIDTH 8 0
BBX 6 7 1 1
BITMAP
CC
00
FC
30
30
30
FC
ENDCHAR
STARTCHAR afii10057
ENCODING 1032
SWIDTH 1000 0
DWIDTH 8 0
BBX 7 7 0 1
BITMAP
06
06
06
06
06
C6
7C
ENDCHAR
STARTCHAR afii10058
ENCODING 1033
SWIDTH 1000 0
DWIDTH 8 0
BBX 7 7 0 1
BITMAP
30
70
DC
D6
D6
D6
DC
ENDCHAR
STARTCHAR afii10059
ENCODING 1034
SWIDTH 1000 0
DWIDTH 8 0
BBX 7 7 0 1
BITMAP
D0
D0
DC
F6
D6
D6
DC
ENDCHAR
STARTCHAR afii10060
ENCODING 1035
SWIDTH 1000 0
DWIDTH 8 0
BBX 7 7 0 1
BITMAP
F8
60
7C
66
66
66
66
ENDCHAR
STARTCHAR afii10061
ENCODING 1036
SWIDTH 1000 0
DWIDTH 8 0
BBX 7 7 0 1
BITMAP
08
10
C6
CC
F8
CC
C6
ENDCHAR
STARTCHAR uni040D
ENCODING 1037
SWIDTH 1000 0
DWIDTH 8 0
BBX 7 7 0 1
BITMAP
20
10
CE
DE
FE
F6
E6
ENDCHAR
STARTCHAR afii10062
ENCODING 1038
SWIDTH 1000 0
DWIDTH 8 0
BBX 7 7 0 1
BITMAP
44
38
C6
C6
7E
06
FC
ENDCHAR
STARTCHAR afii10145
ENCODING 1039
SWIDTH 1000 0
DWIDTH 8 0
BBX 7 8 0 0
BITMAP
C6
C6
C6
C6
C6
C6
FE
10
ENDCHAR
STARTCHAR afii10017
ENCODING 1040
SWIDTH 1000 0
DWIDTH 8 0
BBX 7 7 0 1
BITMAP
38
6C
C6
C6
FE
C6
C6
ENDCHAR
STARTCHAR afii10018
ENCODING 1041
SWIDTH 1000 0
DWIDTH 8 0
BBX 7 7 0 1
BITMAP
FC
C0
C0
FC
C6
C6
FC
ENDCHAR
STARTCHAR afii10019
ENCODING 1042
SWIDTH 1000 0
DWIDTH 8 0
BBX 7 7 0 1
BITMAP
FC
C6
C6
FC
C6
C6
FC
ENDCHAR
STARTCHAR afii10020
ENCODING 1043
SWIDTH 1000 0
DWIDTH 8 0
BBX 6 7 1 1
BITMAP
FC
C0
C0
C0
C0
C0
C0
ENDCHAR
STARTCHAR afii10021
ENCODING 1044
SWIDTH 1000 0
DWIDTH 8 0
BBX 8 8 0 0
BITMAP
1E
36
36
66
66
66
FE
C3
ENDCHAR
STARTCHAR afii10022
ENCODING 1045
SWIDTH 1000 0
DWIDTH 8 0
BBX 7 7 0 1
BITMAP
FE
C0
C0
FC
C0
C0
FE
ENDCHAR
STARTCHAR afii10024
ENCODING 1046
SWIDTH 1000 0
DWIDTH 8 0
BBX 7 7 0 1
BITMAP
D6
D6
7C
38
7C
D6
D6
ENDCHAR
STARTCHAR afii10025
ENCODING 1047
SWIDTH 1000 0
DWIDTH 8 0
BBX 7 7 0 1
BITMAP
7C
C6
06
3C
06
C6
7C
ENDCHAR
STARTCHAR afii10026
ENCODING 1048
SWIDTH 1000 0
DWIDTH 8 0
BBX 7 7 0 1
BITMAP
C6
CE
DE
FE
F6
E6
C6
ENDCHAR
STARTCHAR afii10027
ENCODING 1049
SWIDTH 1000 0
DWIDTH 8 0
BBX 7 7 0 1
BITMAP
44
38
CE
DE
FE
F6
E6
ENDCHAR
STARTCHAR afii10028
ENCODING 1050
SWIDTH 1000 0
DWIDTH 8 0
BBX 7 7 0 1
BITMAP
C6
CC
D8
F0
F8
DC
CE
ENDCHAR
STARTCHAR afii10029
ENCODING 1051
SWIDTH 1000 0
DWIDTH 8 0
BBX 7 7 0 1
BITMAP
1E
36
66
66
C6
C6
C6
ENDCHAR
STARTCHAR afii10030
ENCODING 1052
SWIDTH 1000 0
DWIDTH 8 0
BBX 7 7 0 1
BITMAP
C6
EE
FE
FE
D6
C6
C6
ENDCHAR
STARTCHAR afii10031
ENCODING 1053
SWIDTH 1000 0
DWIDTH 8 0
BBX 7 7 0 1
BITMAP
C6
C6
C6
FE
C6
C6
C6
ENDCHAR
STARTCHAR afii10032
ENCODING 1054
SWIDTH 1000 0
DWIDTH 8 0
BBX 7 7 0 1
BITMAP
7C
C6
C6
C6
C6
C6
7C
ENDCHAR
STARTCHAR afii10033
ENCODING 1055
SWIDTH 1000 0
DWIDTH 8 0
BBX 7 7 0 1
BITMAP
FE
C6
C6
C6
C6
C6
C6
ENDCHAR
STARTCHAR afii10034
ENCODING 1056
SWIDTH 1000 0
DWIDTH 8 0
BBX 7 7 0 1
BITMAP
FC
C6
C6
C6
FC
C0
C0
ENDCHAR
STARTCHAR afii10035
ENCODING 1057
SWIDTH 1000 0
DWIDTH 8 0
BBX 7 7 0 1
BITMAP
3C
66
C0
C0
C0
66
3C
ENDCHAR
STARTCHAR afii10036
ENCODING 1058
SWIDTH 1000 0
DWIDTH 8 0
BBX 6 7 1 1
BITMAP
FC
30
30
30
30
30
30
ENDCHAR
STARTCHAR afii10037
ENCODING 1059
SWIDTH 1000 0
DWIDTH 8 0
BBX 7 7 0 1
BITMAP
C6
C6
C6
7E
06
C6
7C
ENDCHAR
STARTCHAR afii10038
ENCODING 1060
SWIDTH 1000 0
DWIDTH 8 0
BBX 7 7 0 1
BITMAP
10
7C
D6
D6
D6
7C
10
ENDCHAR
STARTCHAR afii10039
ENCODING 1061
SWIDTH 1000 0
DWIDTH 8 0
BBX 7 7 0 1
BITMAP
C6
EE
7C
38
7C
EE
C6
ENDCHAR
STARTCHAR afii10040
ENCODING 1062
SWIDTH 1000 0
DWIDTH 8 0
BBX 7 8 0 0
BITMAP
CC
CC
CC
CC
CC
CC
FE
06
ENDCHAR
STARTCHAR afii10041
ENCODING 1063
SWIDTH 1000 0
DWIDTH 8 0
BBX 7 7 0 1
BITMAP
C6
C6
C6
7E
06
06
06
ENDCHAR
STARTCHAR afii10042
ENCODING 1064
SWIDTH 1000 0
DWIDTH 8 0
BBX 7 7 0 1
BITMAP
D6
D6
D6
D6
D6
D6
FE
ENDCHAR
STARTCHAR afii10043
ENCODING 1065
SWIDTH 1000 0
DWIDTH 8 0
BBX 8 8 0 0
BITMAP
D6
D6
D6
D6
D6
D6
FF
03
ENDCHAR
STARTCHAR afii10044
ENCODING 1066
SWIDTH 1000 0
DWIDTH 8 0
BBX 7 7 0 1
BITMAP
E0
60
7C
66
66
66
7C
ENDCHAR
STARTCHAR afii10045
ENCODING 1067
SWIDTH 1000 0
DWIDTH 8 0
BBX 7 7 0 1
BITMAP
C6
C6
F6
DE
DE
DE
F6
ENDCHAR
STARTCHAR afii10046
ENCODING 1068
SWIDTH 1000 0
DWIDTH 8 0
BBX 7 7 0 1
BITMAP
C0
C0
FC
C6
C6
C6
FC
ENDCHAR
STARTCHAR afii10047
ENCODING 1069
SWIDTH 1000 0
DWIDTH 8 0
BBX 7 7 0 1
BITMAP
78
CC
06
7E
06
CC
78
ENDCHAR
STARTCHAR afii10048
ENCODING 1070
SWIDTH 1000 0
DWIDTH 8 0
BBX 8 7 0 1
BITMAP
CE
DB
DB
FB
DB
DB
CE
ENDCHAR
STARTCHAR afii10049
ENCODING 1071
SWIDTH 1000 0
DWIDTH 8 0
BBX 7 7 0 1
BITMAP
7E
C6
C6
E6
3E
76
E6
ENDCHAR
STARTCHAR afii10065
ENCODING 1072
SWIDTH 1000 0
DWIDTH 8 0
BBX 7 5 0 1
BITMAP
7C
06
7E
C6
7E
ENDCHAR
STARTCHAR afii10066
ENCODING 1073
SWIDTH 1000 0
DWIDTH 8 0
BBX 7 7 0 1
BITMAP
7E
C0
DC
E6
C6
C6
7C
ENDCHAR
STARTCHAR afii10067
ENCODING 1074
SWIDTH 1000 0
DWIDTH 8 0
BBX 7 5 0 1
BITMAP
FC
C6
FC
C6
FC
ENDCHAR
STARTCHAR afii10068
ENCODING 1075
SWIDTH 1000 0
DWIDTH 8 0
BBX 6 5 1 1
BITMAP
FC
C0
C0
C0
C0
ENDCHAR
STARTCHAR afii10069
ENCODING 1076
SWIDTH 1000 0
DWIDTH 8 0
BBX 7 6 0 0
BITMAP
7E
C6
C6
7E
06
7C
ENDCHAR
STARTCHAR afii10070
ENCODING 1077
SWIDTH 1000 0
DWIDTH 8 0
BBX 7 5 0 1
BITMAP
7C
C6
FE
C0
7C
ENDCHAR
STARTCHAR afii10072
ENCODING 1078
SWIDTH 1000 0
DWIDTH 8 0
BBX 7 5 0 1
BITMAP
D6
D6
7C
D6
D6
ENDCHAR
STARTCHAR afii10073
ENCODING 1079
SWIDTH 1000 0
DWIDTH 8 0
BBX 7 5 0 1
BITMAP
FC
06
7C
06
FC
ENDCHAR
STARTCHAR afii10074
ENCODING 1080
SWIDTH 1000 0
DWIDTH 8 0
BBX 7 5 0 1
BITMAP
C6
CE
D6
E6
C6
ENDCHAR
STARTCHAR afii10075
ENCODING 1081
SWIDTH 1000 0
DWIDTH 8 0
BBX 7 7 0 1
BITMAP
44
38
C6
CE
D6
E6
C6
ENDCHAR
STARTCHAR afii10076
ENCODING 1082
SWIDTH 1000 0
DWIDTH 8 0
BBX 7 5 0 1
BITMAP
C6
CC
F8
CC
C6
ENDCHAR
STARTCHAR afii10077
ENCODING 1083
SWIDTH 1000 0
DWIDTH 8 0
BBX 7 5 0 1
BITMAP
3E
66
66
C6
C6
ENDCHAR
STARTCHAR afii10078
ENCODING 1084
SWIDTH 1000 0
DWIDTH 8 0
BBX 7 5 0 1
BITMAP
C6
EE
D6
D6
C6
ENDCHAR
STARTCHAR afii10079
ENCODING 1085
SWIDTH 1000 0
DWIDTH 8 0
BBX 7 5 0 1
BITMAP
C6
C6
FE
C6
C6
ENDCHAR
STARTCHAR afii10080
ENCODING 1086
SWIDTH 1000 0
DWIDTH 8 0
BBX 7 5 0 1
BITMAP
7C
C6
C6
C6
7C
ENDCHAR
STARTCHAR afii10081
ENCODING 1087
SWIDTH 1000 0
DWIDTH 8 0
BBX 7 5 0 1
BITMAP
FE
C6
C6
C6
C6
ENDCHAR
STARTCHAR afii10082
ENCODING 1088
SWIDTH 1000 0
DWIDTH 8 0
BBX 7 6 0 0
BITMAP
FC
C6
C6
FC
C0
C0
ENDCHAR
STARTCHAR afii10083
ENCODING 1089
SWIDTH 1000 0
DWIDTH 8 0
BBX 7 5 0 1
BITMAP
7E
C0
C0
C0
7E
ENDCHAR
STARTCHAR afii10084
ENCODING 1090
SWIDTH 1000 0
DWIDTH 8 0
BBX 6 5 1 1
BITMAP
FC
30
30
30
30
ENDCHAR
STARTCHAR afii10085
ENCODING 1091
SWIDTH 1000 0
DWIDTH 8 0
BBX 7 6 0 0
BITMAP
C6
C6
C6
7E
06
7C
ENDCHAR
STARTCHAR afii10086
ENCODING 1092
SWIDTH 1000 0
DWIDTH 8 0
BBX 7 7 0 0
BITMAP
10
7C
D6
D6
D6
7C
10
ENDCHAR
STARTCHAR afii10087
ENCODING 1093
SWIDTH 1000 0
DWIDTH 8 0
BBX 7 5 0 1
BITMAP
C6
FE
38
FE
C6
ENDCHAR
STARTCHAR afii10088
ENCODING 1094
SWIDTH 1000 0
DWIDTH 8 0
BBX 7 6 0 0
BITMAP
CC
CC
CC
CC
FE
06
ENDCHAR
STARTCHAR afii10089
ENCODING 1095
SWIDTH 1000 0
DWIDTH 8 0
BBX 7 5 0 1
BITMAP
C6
C6
7E
06
06
ENDCHAR
STARTCHAR afii10090
ENCODING 1096
SWIDTH 1000 0
DWIDTH 8 0
BBX 7 5 0 1
BITMAP
D6
D6
D6
D6
FE
ENDCHAR
STARTCHAR afii10091
ENCODING 1097
SWIDTH 1000 0
DWIDTH 8 0
BBX 8 6 0 0
BITMAP
D6
D6
D6
D6
FF
03
ENDCHAR
STARTCHAR afii10092
ENCODING 1098
SWIDTH 1000 0
DWIDTH 8 0
BBX 7 5 0 1
BITMAP
E0
60
7C
66
7C
ENDCHAR
STARTCHAR afii10093
ENCODING 1099
SWIDTH 1000 0
DWIDTH 8 0
BBX 7 5 0 1
BITMAP
C6
C6
F6
DE
F6
ENDCHAR
STARTCHAR afii10094
ENCODING 1100
SWIDTH 1000 0
DWIDTH 8 0
BBX 7 5 0 1
BITMAP
C0
C0
FC
C6
FC
ENDCHAR
STARTCHAR afii10095
ENCODING 1101
SWIDTH 1000 0
DWIDTH 8 0
BBX 7 5 0 1
BITMAP
7C
C6
1E
C6
7C
ENDCHAR
STARTCHAR afii10096
ENCODING 1102
SWIDTH 1000 0
DWIDTH 8 0
BBX 8 5 0 1
BITMAP
CE
DB
FB
DB
CE
ENDCHAR
STARTCHAR afii10097
ENCODING 1103
SWIDTH 1000 0
DWIDTH 8 0
BBX 7 5 0 1
BITMAP
7E
C6
7E
C6
C6
ENDCHAR
STARTCHAR uni0450
ENCODING 1104
SWIDTH 1000 0
DWIDTH 8 0
BBX 7 7 0 1
BITMAP
20
10
7C
C6
FE
C0
7C
ENDCHAR
STARTCHAR afii10071
ENCODING 1105
SWIDTH 1000 0
DWIDTH 8 0
BBX 7 7 0 1
BITMAP
6C
00
7C
C6
FE
C0
7C
ENDCHAR
STARTCHAR afii10099
ENCODING 1106
SWIDTH 1000 0
DWIDTH 8 0
BBX 7 8 0 0
BITMAP
60
F8
60
7C
66
66
66
0C
ENDCHAR
STARTCHAR afii10100
ENCODING 1107
SWIDTH 1000 0
DWIDTH 8 0
BBX 6 7 1 1
BITMAP
10
20
FC
C0
C0
C0
C0
ENDCHAR
STARTCHAR afii10101
ENCODING 1108
SWIDTH 1000 0
DWIDTH 8 0
BBX 7 5 0 1
BITMAP
7C
C6
F0
C6
7C
ENDCHAR
STARTCHAR afii10102
ENCODING 1109
SWIDTH 1000 0
DWIDTH 8 0
BBX 7 5 0 1
BITMAP
7C
C0
7C
06
FC
ENDCHAR
STARTCHAR afii10103
ENCODING 1110
SWIDTH 1000 0
DWIDTH 8 0
BBX 6 7 1 1
BITMAP
30
00
70
30
30
30
FC
ENDCHAR
STARTCHAR afii10104
ENCODING 1111
SWIDTH 1000 0
DWIDTH 8 0
BBX 6 7 1 1
BITMAP
D8
00
70
30
30
30
FC
ENDCHAR
STARTCHAR afii10105
ENCODING 1112
SWIDTH 1000 0
DWIDTH 8 0
BBX 5 8 1 0
BITMAP
18
00
38
18
18
18
18
F0
ENDCHAR
STARTCHAR afii10106
ENCODING 1113
SWIDTH 1000 0
DWIDTH 8 0
BBX 7 5 0 1
BITMAP
30
7C
D6
D6
DC
ENDCHAR
STARTCHAR afii10107
ENCODING 1114
SWIDTH 1000 0
DWIDTH 8 0
BBX 7 5 0 1
BITMAP
D0
DC
F6
D6
DC
ENDCHAR
STARTCHAR afii10108
ENCODING 1115
SWIDTH 1000 0
DWIDTH 8 0
BBX 7 7 0 1
BITMAP
60
F8
60
7C
66
66
66
ENDCHAR
STARTCHAR afii10109
ENCODING 1116
SWIDTH 1000 0
DWIDTH 8 0
BBX 7 7 0 1
BITMAP
08
10
C6
CC
F8
CC
C6
ENDCHAR
STARTCHAR uni045D
ENCODING 1117
SWIDTH 1000 0
DWIDTH 8 0
BBX 7 7 0 1
BITMAP
20
10
C6
CE
D6
E6
C6
ENDCHAR
STARTCHAR afii10110
ENCODING 1118
SWIDTH 1000 0
DWIDTH 8 0
BBX 7 8 0 0
BITMAP
44
38
C6
C6
C6
7E
06
7C
ENDCHAR
STARTCHAR afii10193
ENCODING 1119
SWIDTH 1000 0
DWIDTH 8 0
BBX 7 6 0 0
BITMAP
C6
C6
C6
C6
FE
10
ENDCHAR
STARTCHAR endash
ENCODING 8211
SWIDTH 1000 0
DWIDTH 8 0
BBX 7 1 0 4
BITMAP
FE
ENDCHAR
STARTCHAR emdash
ENCODING 8212
SWIDTH 1000 0
DWIDTH 8 0
BBX 8 1 0 4
BITMAP
FF
ENDCHAR
STARTCHAR afii00208
ENCODING 8213
SWIDTH 1000 0
DWIDTH 8 0
BBX 7 1 0 4
BITMAP
FE
ENDCHAR
STARTCHAR quoteleft
ENCODING 8216
SWIDTH 1000 0
DWIDTH 8 0
BBX 3 3 2 5
BITMAP
60
C0
C0
ENDCHAR
STARTCHAR quoteright
ENCODING 8217
SWIDTH 1000 0
DWIDTH 8 0
BBX 3 3 2 5
BITMAP
60
60
C0
ENDCHAR
STARTCHAR quotesinglbase
ENCODING 8218
SWIDTH 1000 0
DWIDTH 8 0
BBX 3 3 2 1
BITMAP
60
60
C0
ENDCHAR
STARTCHAR quotedblleft
ENCODING 8220
SWIDTH 1000 0
DWIDTH 8 0
BBX 6 3 1 5
BITMAP
6C
D8
D8
ENDCHAR
STARTCHAR quotedblright
ENCODING 8221
SWIDTH 1000 0
DWIDTH 8 0
BBX 6 3 1 5
BITMAP
6C
6C
D8
ENDCHAR
STARTCHAR quotedblbase
ENCODING 8222
SWIDTH 1000 0
DWIDTH 8 0
BBX 6 3 0 1
BITMAP
6C
6C
D8
ENDCHAR
STARTCHAR dagger
ENCODING 8224
SWIDTH 1000 0
DWIDTH 8 0
BBX 6 7 1 1
BITMAP
30
30
FC
30
30
30
30
ENDCHAR
STARTCHAR daggerdbl
ENCODING 8225
SWIDTH 1000 0
DWIDTH 8 0
BBX 6 7 1 1
BITMAP
30
30
FC
30
FC
30
30
ENDCHAR
STARTCHAR bullet
ENCODING 8226
SWIDTH 1000 0
DWIDTH 8 0
BBX 4 4 2 2
BITMAP
60
F0
F0
60
ENDCHAR
STARTCHAR ellipsis
ENCODING 8230
SWIDTH 1000 0
DWIDTH 8 0
BBX 7 2 0 1
BITMAP
92
92
ENDCHAR
STARTCHAR perthousand
ENCODING 8240
SWIDTH 1000 0
DWIDTH 8 0
BBX 8 7 0 1
BITMAP
62
A4
C8
10
2F
55
9E
ENDCHAR
STARTCHAR guilsinglleft
ENCODING 8249
SWIDTH 1000 0
DWIDTH 8 0
BBX 4 5 2 2
BITMAP
30
60
C0
60
30
ENDCHAR
STARTCHAR guilsinglright
ENCODING 8250
SWIDTH 1000 0
DWIDTH 8 0
BBX 4 5 1 2
BITMAP
C0
60
30
60
C0
ENDCHAR
STARTCHAR fraction
ENCODING 8260
SWIDTH 1000 0
DWIDTH 8 0
BBX 7 7 0 1
BITMAP
02
04
08
10
20
40
80
ENDCHAR
STARTCHAR Euro
ENCODING 8364
SWIDTH 1000 0
DWIDTH 8 0
BBX 7 7 0 1
BITMAP
1C
36
F8
60
F8
36
1C
ENDCHAR
STARTCHAR uni20AF
ENCODING 8367
SWIDTH 1000 0
DWIDTH 8 0
BBX 7 8 0 0
BITMAP
60
90
94
9A
9A
9A
EC
08
ENDCHAR
STARTCHAR afii61352
ENCODING 8470
SWIDTH 1000 0
DWIDTH 8 0
BBX 7 7 0 1
BITMAP
C4
AA
AA
AA
A4
A0
AE
ENDCHAR
STARTCHAR trademark
ENCODING 8482
SWIDTH 1000 0
DWIDTH 8 0
BBX 6 4 1 4
BITMAP
FC
5C
54
54
ENDCHAR
STARTCHAR arrowleft
ENCODING 8592
SWIDTH 1000 0
DWIDTH 8 0
BBX 8 7 0 1
BITMAP
10
30
7F
FF
7F
30
10
ENDCHAR
STARTCHAR arrowup
ENCODING 8593
SWIDTH 1000 0
DWIDTH 8 0
BBX 7 8 0 0
BITMAP
10
38
7C
FE
38
38
38
38
ENDCHAR
STARTCHAR arrowright
ENCODING 8594
SWIDTH 1000 0
DWIDTH 8 0
BBX 8 7 0 1
BITMAP
08
0C
FE
FF
FE
0C
08
ENDCHAR
STARTCHAR arrowdown
ENCODING 8595
SWIDTH 1000 0
DWIDTH 8 0
BBX 7 8 0 0
BITMAP
38
38
38
38
FE
7C
38
10
ENDCHAR
STARTCHAR partialdiff
ENCODING 8706
SWIDTH 1000 0
DWIDTH 8 0
BBX 7 7 0 1
BITMAP
78
CC
06
7E
C6
C6
7C
ENDCHAR
STARTCHAR uni2206
ENCODING 8710
SWIDTH 1000 0
DWIDTH 8 0
BBX 7 7 0 1
BITMAP
38
6C
C6
C6
C6
C6
FE
ENDCHAR
STARTCHAR product
ENCODING 8719
SWIDTH 1000 0
DWIDTH 8 0
BBX 7 7 0 1
BITMAP
FE
C6
C6
C6
C6
C6
C6
ENDCHAR
STARTCHAR summation
ENCODING 8721
SWIDTH 1000 0
DWIDTH 8 0
BBX 7 7 0 1
BITMAP
FE
66
30
1C
30
66
FE
ENDCHAR
STARTCHAR radical
ENCODING 8730
SWIDTH 1000 0
DWIDTH 8 0
BBX 7 7 0 1
BITMAP
1E
18
18
18
D8
78
38
ENDCHAR
STARTCHAR infinity
ENCODING 8734
SWIDTH 1000 0
DWIDTH 8 0
BBX 7 4 0 2
BITMAP
6C
92
92
6C
ENDCHAR
STARTCHAR integral
ENCODING 8747
SWIDTH 1000 0
DWIDTH 8 0
BBX 6 8 1 0
BITMAP
18
34
30
30
30
30
B0
60
ENDCHAR
STARTCHAR approxequal
ENCODING 8776
SWIDTH 1000 0
DWIDTH 8 0
BBX 6 5 0 2
BITMAP
64
98
00
64
98
ENDCHAR
STARTCHAR notequal
ENCODING 8800
SWIDTH 1000 0
DWIDTH 8 0
BBX 7 7 0 1
BITMAP
02
04
FE
10
FE
40
80
ENDCHAR
STARTCHAR lessequal
ENCODING 8804
SWIDTH 1000 0
DWIDTH 8 0
BBX 4 7 2 1
BITMAP
30
60
C0
60
30
00
F0
ENDCHAR
STARTCHAR greaterequal
ENCODING 8805
SWIDTH 1000 0
DWIDTH 8 0
BBX 4 7 2 1
BITMAP
C0
60
30
60
C0
00
F0
ENDCHAR
STARTCHAR triagup
ENCODING 9650
SWIDTH 1000 0
DWIDTH 8 0
BBX 7 7 0 1
BITMAP
10
10
38
38
7C
7C
FE
ENDCHAR
STARTCHAR uni25B6
ENCODING 9654
SWIDTH 1000 0
DWIDTH 8 0
BBX 7 7 0 1
BITMAP
80
E0
F8
FE
F8
E0
80
ENDCHAR
STARTCHAR triagdn
ENCODING 9660
SWIDTH 1000 0
DWIDTH 8 0
BBX 7 7 0 1
BITMAP
FE
7C
7C
38
38
10
10
ENDCHAR
STARTCHAR uni25C0
ENCODING 9664
SWIDTH 1000 0
DWIDTH 8 0
BBX 7 7 0 1
BITMAP
02
0E
3E
FE
3E
0E
02
ENDCHAR
STARTCHAR lozenge
ENCODING 9674
SWIDTH 1000 0
DWIDTH 8 0
BBX 7 7 0 1
BITMAP
10
28
44
82
44
28
10
ENDCHAR
STARTCHAR uni2605
ENCODING 9733
SWIDTH 1000 0
DWIDTH 8 0
BBX 7 7 0 1
BITMAP
10
10
FE
7C
38
6C
44
ENDCHAR
STARTCHAR uni2606
ENCODING 9734
SWIDTH 1000 0
DWIDTH 8 0
BBX 7 7 0 1
BITMAP
10
10
EE
44
28
7C
44
ENDCHAR
STARTCHAR spade
ENCODING 9824
SWIDTH 800 0
DWIDTH 8 0
BBX 7 7 0 1
BITMAP
10
38
7C
FE
FE
38
7C
ENDCHAR
STARTCHAR club
ENCODING 9827
SWIDTH 800 0
DWIDTH 8 0
BBX 6 7 1 1
BITMAP
30
30
CC
CC
30
30
78
ENDCHAR
STARTCHAR heart
ENCODING 9829
SWIDTH 1000 0
DWIDTH 8 0
BBX 7 7 0 1
BITMAP
6C
FE
FE
FE
7C
38
10
ENDCHAR
STARTCHAR diamond
ENCODING 9830
SWIDTH 800 0
DWIDTH 8 0
BBX 7 7 0 1
BITMAP
10
38
7C
FE
7C
38
10
ENDCHAR
STARTCHAR musicalnote
ENCODING 9834
SWIDTH 1000 0
DWIDTH 8 0
BBX 7 7 0 1
BITMAP
10
18
14
12
74
F0
60
ENDCHAR
STARTCHAR uniF100
ENCODING 9835
SWIDTH 1000 0
DWIDTH 8 0
BBX 6 7 1 1
BITMAP
FC
84
F4
C4
FC
DC
FC
ENDCHAR
STARTCHAR uniF101
ENCODING 9836
SWIDTH 1000 0
DWIDTH 8 0
BBX 5 2 1 1
BITMAP
38
F8
ENDCHAR
STARTCHAR uniF8FF
ENCODING 9837
SWIDTH 1000 0
DWIDTH 8 0
BBX 8 7 0 1
BITMAP
08
76
FD
FD
FB
7E
2C
ENDCHAR
STARTCHAR uniFB01
ENCODING 9838
SWIDTH 1000 0
DWIDTH 8 0
BBX 7 7 0 1
BITMAP
38
60
FE
66
66
66
66
ENDCHAR
STARTCHAR uniFB02
ENCODING 9839
SWIDTH 1000 0
DWIDTH 8 0
BBX 7 7 0 1
BITMAP
3E
66
FE
66
66
66
66
ENDCHAR
ENDFONT
